<svg xmlns="http://www.w3.org/2000/svg" width="500" height="500"><path fill="#32cd32" d="M242.427 29.901c3.673.165 7.347.237 11.022.318 7.189.17 14.368.443 21.551.781 1.272 3.738 2.33 7.277 2.938 11.18l.508 3.17.554 3.525c2.903 17.94 6.134 35.821 9.346 53.708l1.252 6.976.617 3.438a3418 3418 0 0 1 3.926 22.37c1.404 8.132 2.895 16.235 4.547 24.32l.642 3.198c1.228 6.082 1.228 6.082 2.67 12.115l1.898-2.406 2.477-3.094 2.46-3.094L311 164h2v-2h2v-2h2l.781-1.703c1.36-2.564 2.947-4.75 4.719-7.047l1.844-2.422L326 147h2l.707-1.672c1.633-2.94 3.686-5.119 5.98-7.578q1.365-1.476 2.727-2.953L340 132c4.912-5.458 9.532-11.112 14.082-16.875L356 113h2l.875-1.813C360 109 360 109 362 106h2l.684-1.652c1.707-3.046 3.986-5.401 6.379-7.91 4.643-4.958 9-10.06 13.257-15.356C386 79 386 79 387 78h47v127h38v38h-38v80h-43v-80h-77l3 13c.498 2.395.982 4.793 1.442 7.196l.727 3.78.749 3.934.794 4.153q.823 4.307 1.641 8.614 1.05 5.514 2.109 11.025.817 4.268 1.629 8.537.387 2.034.778 4.068.543 2.83 1.077 5.662l.619 3.246C329 319 329 319 329 323c-21.288 1.33-38.385 2.279-56.538-10.375-4.17-2.753-8.65-4.843-13.15-7q-2.49-1.227-4.976-2.46l-2.29-1.137c-3.404-1.71-6.737-3.543-10.066-5.395-5.018-2.75-10.097-5.384-15.17-8.031l-2.357-1.235-2.29-1.192c-2.035-1.105-3.97-2.31-5.929-3.542-2.995-1.825-2.995-1.825-5.687-1.602-3.511 1.336-6.914 2.841-10.297 4.469l-2.232 1.06c-6.2 2.973-12.28 6.16-18.308 9.47-3.828 2.078-7.509 3.729-11.71 4.97-1-1-1-1-1.114-4.326q0-2.214.016-4.428l.005-2.35c.005-2.486.018-4.972.03-7.459l.014-5.044q.017-6.197.049-12.393c-5.942-.254-11.875-.4-17.822-.452a209 209 0 0 1-6.052-.182c-11.098-.852-11.098-.852-20.99 3.159-3.17 3.75-5.249 7.919-7.186 12.403-1.536 3.35-3.523 6.349-5.512 9.447-2.334 3.749-2.334 3.749-4.438 7.625h-2l-.366 1.77c-.652 2.294-1.504 3.903-2.779 5.91l-1.302 2.066-1.365 2.129-1.33 2.105A619 619 0 0 1 92 317l-1.328 3.21c-3.192 3.333-4.073 3.25-8.542 3.471a310 310 0 0 1-7.427-.095l-3.951-.026c-3.46-.023-6.918-.082-10.377-.148-3.532-.061-7.065-.089-10.598-.119A2318 2318 0 0 1 29 323c.857-4.027 2.647-6.672 5-10.063 2.965-4.235 2.965-4.235 5-8.937h2l.354-1.759c.688-2.386 1.616-4.032 2.974-6.104l1.426-2.19 1.496-2.26 1.45-2.224c2.28-3.483 4.606-6.918 7.046-10.291 2.106-2.964 3.728-5.879 5.254-9.172h2l.352-1.751c.698-2.422 1.656-4.118 3.02-6.233l1.474-2.31 1.592-2.456 3.304-5.164 1.671-2.603a948 948 0 0 0 6.65-10.608C86.27 230.515 91.634 222.259 97 214q2.535-3.903 5.063-7.813l2.16-3.332c1.401-2.252 2.656-4.456 3.777-6.855h2l.816-2.172c4.441-10.611 11.644-20.274 17.912-29.876 4.527-6.947 8.916-13.94 13.01-21.151L143 141h2l.352-1.751c.698-2.422 1.656-4.118 3.02-6.233l1.473-2.309 1.593-2.457 3.312-5.176 1.672-2.604c2.204-3.45 4.36-6.928 6.516-10.408a1068 1068 0 0 1 24.671-37.847c1.533-2.248 1.533-2.248 2.391-5.215h2l.38-1.792c.99-3.52 3.094-6.41 5.058-9.458l2.433-3.828 1.506-2.17c1.378-2.337 2.203-4.301 3.09-6.832 6.71-16.735 22.632-13.78 37.96-13.019M237 82a79 79 0 0 0-2.336 3.777l-1.46 2.47c-.52.888-1.042 1.776-1.579 2.69-3.941 6.647-7.952 13.225-12.187 19.688a620 620 0 0 0-11.188 17.75c-10.662 17.545-10.662 17.545-15.062 23.437-2.118 3.086-3.096 5.646-4.188 9.188 1.842.901 3.7 1.77 5.563 2.625l3.128 1.477c6.266 1.701 11.52-1.524 17.122-4.227q1.965-.938 3.933-1.871c1.03-.49 1.03-.49 2.082-.988 3.824-1.789 7.685-3.496 11.547-5.204l2.195-.97 4.242-1.875Q244.409 147.49 250 145l-.595-3.11q-1.119-5.854-2.23-11.71l-.958-5.014c-1.849-9.668-3.639-19.336-5.162-29.06-.767-4.784-1.827-9.42-3.055-14.106zm153 47c-3.614 3.5-3.614 3.5-5 8h-2l-2 5h-2v2h-2c-1.471 1.647-1.471 1.647-3 3.812-3.632 4.818-7.608 9.225-11.687 13.665-4.965 4.672-4.965 4.672-7.313 10.523h-2c-3.025 3.056-3.025 3.056-4 7h-2c-2.398 2.637-2.398 2.637-3 6h-2c-1.582 1.484-1.582 1.484-3.125 3.375l-1.633 1.898c-1.437 1.643-1.437 1.643-1.242 3.727h-2a91 91 0 0 0-4.125 4.937l-2.195 2.778c-1.779 1.947-1.779 1.947-1.68 3.285h65v-76zm-147.934 35.46c-.731.308-1.463.615-2.216.93l-2.287.985-4.497 1.898c-.7.3-1.402.598-2.124.906A298 298 0 0 1 224 172v2l12 5 1 98c5.806 3.397 5.806 3.397 12 5q.264-13.437.5-26.875l.036-2.045c.524-30.028.577-60.047.464-90.08-3.548 0-4.86.153-7.934 1.46M185 172v106l18-8c.11-30.35.096-60.666-1-91a568 568 0 0 0-4.562-2.375l-2.567-1.336c-3.474-1.642-3.474-1.642-9.871-3.289m28 10v37l13 3v-36zm-47 15a148 148 0 0 0-3.273 5.11l-2 3.226-2.102 3.414q-2.04 3.306-4.086 6.61l-1.837 2.983C151 221 151 221 149.279 223.165c-1.565 1.872-1.565 1.872-1.279 4.835h-2l1 3 20-1v-33zm97 33q-.037 10.89-.055 21.777a4990 4990 0 0 1-.02 7.403c-.013 3.554-.018 7.109-.023 10.664l-.015 3.321c0 5.698.083 11.221 1.113 16.835 1.869 2.025 1.869 2.025 4.375 3.062l2.398 1.223c2.36 1 2.36 1 5.227-.285l-.516-2.543c-3.04-15.09-5.998-30.188-8.474-45.382A367 367 0 0 0 264 230zm-48 2v33l11 4v-35c-5.736-2.264-5.736-2.264-11-2m-16.145 116.867 2.333.008 2.292-.008c2.861.151 5.694.662 8.52 1.133v33c9.499-.04 9.499-.04 18.998-.09l3.56-.008 3.666-.016C241 383 241 383 242 384c.073 2.353.084 4.708.063 7.063l-.028 3.91L242 398c-9.987 1.257-19.956 1.094-30 1l.016 2.83q.025 5.18.039 10.36.008 2.244.02 4.49.018 3.22.023 6.441l.016 3.92C212 430 212 430 211 431c-1.952.262-3.913.46-5.875.625-1.07.095-2.14.19-3.242.29C199 432 199 432 196 431v-33l-6 1q-2.79.13-5.582.133l-3.072.004-3.159-.012-3.216.012-3.053-.004-2.788-.004C167 399 167 399 166 398v-15h30l-.035-7.184q-.012-3.43-.02-6.86-.008-2.391-.02-4.781c-.013-2.287-.018-4.573-.023-6.859l-.015-2.171c0-1.716.051-3.43.113-5.145 1-1 1-1 2.855-1.133M100 350h16v33h30c1.17 2.34 1.134 3.774 1.125 6.375l.008 2.336c-.13 2.222-.52 4.155-1.133 6.289-6.168 1.099-12.184 1.115-18.437 1.063l-3.084-.014A2066 2066 0 0 1 117 399l-.076 2.922q-.142 5.348-.296 10.695-.065 2.317-.125 4.636-.088 3.324-.187 6.65l-.05 2.105c-.152 4.878-.152 4.878-1.266 5.992a137 137 0 0 1-7-.312c-1.279-.08-2.558-.158-3.875-.239L101 431c-1.625-3.25-1.143-6.807-1.125-10.375l-.012-2.27c.011-6.485.532-12.9 1.137-19.355l-2.83.016q-5.18.026-10.36.039-2.244.008-4.49.02-3.22.017-6.441.023l-3.92.016C70 399 70 399 69 398v-15h31zm291.617-1.133 3.258.008 3.242-.008C401 349 401 349 404 350l-1 33h31c.703 4.923 1.288 9.103 1 14-2 2-2 2-4.89 2.227-1.204-.01-2.408-.02-3.65-.032l-3.552-.015-4.533-.055L404 399v32c-10 1-10 1-15 1-1.923-1.923-1.253-5.47-1.316-8.098l-.063-2.148a2259 2259 0 0 1-.183-6.817l-.131-4.61q-.161-5.663-.307-11.327l-2.016.016q-4.554.029-9.109.046l-3.172.026c-5.012.016-9.78-.006-14.703-1.088q-.29-3.469-.562-6.937l-.317-3.903L357 384c1-1 1-1 3.776-1.114l3.665.016 3.955.01 4.166.026q2.09.008 4.178.013 5.13.018 10.26.049l.076-3.013q.142-5.515.296-11.031.065-2.391.125-4.781.088-3.43.187-6.859l.05-2.171c.184-6.09.184-6.09 3.883-6.278m-94.965 0 3.286.008 3.277-.008C306 349 306 349 308 350v33h30v15c-1.586 1.586-3.215 1.13-5.41 1.133l-2.752.004-2.9-.012-2.819.012-2.78-.004-2.519-.004c-3.645-.167-7.203-.644-10.82-1.129l.016 3.013q.026 5.515.039 11.031.008 2.391.02 4.781c.013 2.287.018 4.573.023 6.859l.015 2.171c0 1.716-.051 3.43-.113 5.145-1 1-1 1-3.652 1.133l-3.286-.008-3.277.008C295 432 295 432 293 431v-32c-10.157.04-10.157.04-20.314.09l-3.807.008-3.92.016C262 399 262 399 261 398c-.1-2.332-.13-4.666-.125-7l-.008-3.875C261 384 261 384 262 383a153 153 0 0 1 6.66-.098l2.014.005c2.13.005 4.259.018 6.389.03q2.16.009 4.322.014 5.308.017 10.615.049l.076-3.013q.142-5.515.296-11.031.065-2.391.125-4.781.088-3.43.187-6.859l.05-2.171c.184-6.09.184-6.09 3.918-6.278"/><path fill="#32cd32" d="M294 349q2.938-.04 5.875-.062l3.305-.036C306 349 306 349 308 350v33h30v15c-1.586 1.586-3.215 1.13-5.41 1.133l-2.752.004-2.9-.012-2.819.012-2.78-.004-2.519-.004c-3.645-.167-7.203-.644-10.82-1.129l.016 3.013q.026 5.515.039 11.031.008 2.391.02 4.781c.013 2.287.018 4.573.023 6.859l.015 2.171c0 1.716-.051 3.43-.113 5.145-1 1-1 1-3.652 1.133l-3.286-.008-3.277.008C295 432 295 432 293 431v-32c-10.157.04-10.157.04-20.314.09l-3.807.008-3.92.016C262 399 262 399 261 398c-.1-2.332-.13-4.666-.125-7l-.008-3.875C261 384 261 384 262 383a153 153 0 0 1 6.66-.098l2.014.005c2.13.005 4.259.018 6.389.03q2.16.009 4.322.014c3.538.01 7.077.03 10.615.049l1-23h1c.029 3.98.047 7.958.063 11.938l.025 3.443.01 3.271.016 3.031C294 384 294 384 293 385c-2.292.088-4.586.107-6.879.098l-2.08-.005a2051 2051 0 0 1-6.603-.03q-2.234-.009-4.467-.014-5.486-.017-10.971-.049v12l2.782-.016q5.122-.026 10.243-.039 2.214-.008 4.429-.02 3.187-.017 6.374-.023l3.872-.016c2.662.092 4.783.313 7.3 1.114l-1 3a138 138 0 0 0-.098 6.2l.01 3.661.026 3.827.013 3.86q.018 4.727.049 9.452h9l1-31c2.737-1.368 5.043-1.216 8.102-1.316l3.671-.127 3.852-.12 3.875-.13q4.75-.16 9.5-.307l1-9h-29v-35h-14zm97.617-.133 3.258.008 3.242-.008C401 349 401 349 404 350l-1 33h31c.703 4.923 1.288 9.103 1 14-2 2-2 2-4.89 2.227-1.204-.01-2.408-.02-3.65-.032l-3.552-.015-4.533-.055L404 399v32h-1v-34h30l-1-11-2.646.016q-4.845.026-9.69.039-2.099.008-4.198.02-3.013.017-6.025.023l-3.665.016C403 386 403 386 402 385c-.159-2.29-.251-4.584-.316-6.879l-.063-2.08q-.097-3.302-.183-6.603l-.131-4.467q-.161-5.486-.307-10.971c-2.957-1.478-5.742-1.06-9-1l-.044 2.89c-.058 3.54-.135 7.078-.218 10.617a668 668 0 0 0-.084 4.595 649 649 0 0 1-.142 6.605l-.02 2.074c-.088 2.87-.2 4.801-1.868 7.19C388 388 388 388 385.5 387.75A191 191 0 0 1 380 386a124 124 0 0 0-4.887-.535l-2.842-.264-2.959-.264-2.994-.275q-3.658-.335-7.318-.662l1 11 29 2v34h-1l-1-32c-7.3.04-7.3.04-14.598.09-4.91.013-9.579-.03-14.402-1.09q-.29-3.469-.562-6.937l-.317-3.903L357 384c1-1 1-1 3.776-1.114l3.665.016 3.955.01 4.166.026q2.09.008 4.178.013 5.13.018 10.26.049l.076-3.013q.142-5.515.296-11.031.065-2.391.125-4.781.088-3.43.187-6.859l.05-2.171c.184-6.09.184-6.09 3.883-6.278M314 242h79v79h39v-79h40v1h-38v80h-43v-80h-77zm-115-65h5l1 95 8-2-1.125 1.75c-1.099 2.197-1.099 2.197-.375 4.375 1.455 2.17 1.455 2.17 4.563 2.875l2.937 1c.875 2.125.875 2.125 1 4l-2.125-.937c-3.21-1.187-5.429-1.997-8.875-2.063-2.323 1.127-4.475 2.437-6.676 3.785-3.457 1.807-6.458 2.004-10.324 2.215l1-3h4v-7l-1.898.508-2.477.617-2.46.633L188 279l-2-2q3.684-1.756 7.375-3.5l2.117-1.012C200.773 270 200.773 270 203 270l-.496-2.388c-.628-4.498-.608-8.863-.566-13.397l.025-5.937.02-3.137c.088-16.037.087-32.072-.3-48.105q-.059-2.405-.105-4.81a831 831 0 0 0-.164-6.624l-.095-3.74c-.032-2.991-.032-2.991-2.319-4.862m-.145 171.867 2.333.008 2.292-.008c2.861.151 5.694.662 8.52 1.133v33h-1v-32h-14v33h-30v13h32v33l11-1-.07-4.453q-.029-2.899-.055-5.797c-.017-.968-.034-1.936-.05-2.934l-.02-2.832-.032-2.602c.244-2.561.937-4.177 2.227-6.382.029 4.312.047 8.625.063 12.938l.025 3.732.01 3.545.016 3.285C212 430 212 430 211 431c-1.952.262-3.913.46-5.875.625-1.07.095-2.14.19-3.242.29C199 432 199 432 196 431v-33l-6 1q-2.79.13-5.582.133l-3.072.004-3.159-.012-3.216.012-3.053-.004-2.788-.004C167 399 167 399 166 398v-15h30l-.035-7.184q-.012-3.43-.02-6.86-.008-2.391-.02-4.781c-.013-2.287-.018-4.573-.023-6.859l-.015-2.171c0-1.716.051-3.43.113-5.145 1-1 1-1 2.855-1.133M232 177c3.875.875 3.875.875 5 2 .095 3.044.126 6.065.114 9.11v2.897c0 3.176-.009 6.352-.016 9.528l-.005 6.587q-.006 8.688-.024 17.376-.014 8.858-.02 17.715-.016 17.393-.049 34.787l2 1-3 1c-1.835-1.553-2.894-2.46-3.366-4.86l.012-2.125-.008-2.447.037-2.673.004-2.825c.007-3.086.035-6.171.063-9.257q.012-3.212.02-6.423c.017-5.641.052-11.282.09-16.923.06-9.03.093-18.06.126-27.09q.023-4.738.058-9.477l.03-5.795.025-2.673c.013-3.399-.008-6.184-1.091-9.432m18-16 2 1c.96 26.181 1.008 52.287.605 78.48q-.106 7.234-.2 14.467-.191 14.026-.405 28.053h-2z"/><path fill="#32cd32" d="M401 351h2v32h31c.703 4.923 1.288 9.103 1 14-2 2-2 2-4.89 2.227-1.204-.01-2.408-.02-3.65-.032l-3.552-.015-4.533-.055L404 399v32h-1v-34h30l-1-11-2.646.016q-4.845.026-9.69.039-2.099.008-4.198.02-3.013.017-6.025.023l-3.665.016C403 386 403 386 402 385c-.16-2.519-.26-5.013-.316-7.535l-.063-2.283q-.097-3.623-.183-7.245l-.131-4.9Q401.146 357.02 401 351M182 171h2v108l2 1-4-1c-.83-2.891-1.115-5.425-1.082-8.43l.021-2.668.04-2.903.028-3.076c.033-3.354.074-6.709.114-10.064l.072-6.978q.095-9.183.202-18.366.104-9.37.2-18.742.195-18.386.405-36.773m17 6h5v91c-1.807-3.614-2.249-4.56-2.211-8.273l.01-2.553.04-2.764.018-2.911q.02-3.104.05-6.207c.051-5.432.066-10.864.081-16.296l.011-3.314c.021-9.553-.08-19.098-.315-28.648q-.06-2.404-.106-4.808a837 837 0 0 0-.164-6.624l-.095-3.74c-.032-2.991-.032-2.991-2.319-4.862m-55 217 1 3-30 1v32h-13l-1-33h2v32l9-1 .044-2.722q.093-4.994.218-9.986.051-2.16.084-4.324c.034-2.07.086-4.14.142-6.21l.08-3.777L113 398c3.2-2.133 4.195-2.272 7.895-2.379l2.896-.103 3.022-.08c8.64-.222 8.64-.222 17.187-1.438m53-43h14l-1 11h-1v-10h-10l.016 3.013q.026 5.515.039 11.031.008 2.391.02 4.781.018 3.43.023 6.859l.015 2.171c0 1.716-.051 3.43-.113 5.145-1.912 1.912-5.336 1.244-7.879 1.316l-2.08.063q-3.302.097-6.603.183l-4.467.131q-5.486.161-10.971.307v-3h30zm170.375 31.813 2.656-.038 2.555-.005 2.345-.013C377 383 377 383 380 385c-7.097.108-13.96-.061-21-1l1 11 29 2v34h-1l-1-32c-7.3.04-7.3.04-14.598.09-4.91.013-9.579-.03-14.402-1.09q-.29-3.469-.562-6.937l-.317-3.903L357 384c2.232-2.232 7.377-1.185 10.375-1.187M261 221h3l1 7h-2v62h-1c-.723-4.54-1.123-8.89-1.114-13.486v-3.76l.016-4 .005-4.14q.006-5.418.024-10.835.014-5.541.02-11.082.016-10.849.049-21.697M101 351l2 1v34c-14.437.438-14.437.438-18.998.568l-3.56.116-3.666.11c-2.683-.105-2.683-.105-3.776 1.206v7l28 1v1H70v-12l31-1zm65-155h2v37c-3.031 1.01-4.744 1.05-7.887.879l-2.842-.147-2.958-.17-2.995-.158q-3.66-.195-7.318-.404v-7l2-1v-3l4-1a85 85 0 0 1-2 7h-2l1 2h20z"/><path fill="#32cd32" d="M115 352h1v31h30c1.17 2.34 1.134 3.774 1.125 6.375l.008 2.336c-.13 2.222-.52 4.155-1.133 6.289-5.09.837-9.97 1.154-15.125 1.125l-2.09.012c-3.72-.007-7.168-.25-10.785-1.137v-1h27l-1-4 1-9h-30zM410.75 77.125q3.242.105 6.484.191c5.26.154 10.512.387 15.766.684v1l-42 1v4h-2v2h-3l-1 2c-1.777 1.324-1.777 1.324-3.937 2.688l-2.153 1.386L377 93l-2-1c9.176-15.542 18.663-15.845 35.75-14.875M211 384h30v13h-30v-1c3.916-.197 7.833-.381 11.75-.562l3.367-.17 3.242-.147 2.984-.143C235 395 235 395 239 396v-10h-28zm-43-121-1 2-3.9.044c-4.769.058-9.538.135-14.307.218q-3.097.051-6.195.084c-2.967.034-5.933.086-8.899.142l-2.803.02-2.608.06-2.295.033c-2.483.497-3.394 1.487-4.993 3.399-.043-2-.04-4 0-6 2.168-2.168 7.13-1.31 10.145-1.387l2.791-.077q2.933-.078 5.864-.149c2.99-.074 5.978-.165 8.968-.256q2.844-.073 5.689-.143l2.712-.088 2.537-.051 2.225-.058c2.394.242 3.994 1.022 6.069 2.209m59-78h1c1.115 7.225 1.455 14.39 1.75 21.688l.207 3.994.152 3.83.156 3.483c-.296 3.354-.84 4.697-3.265 7.005-3.187.25-3.187.25-6 0v-3h6z"/><path fill="#32cd32" d="m211 179 4 2 3.625.438L222 182l2 3c-3.393-.54-6.662-1.166-10-2l-1 36 12 2c-4 2-4 2-13 1zm16 53c1.591 3.183 1 6.587.879 10.07l-.072 2.413q-.116 3.822-.244 7.642l-.159 5.176q-.195 6.35-.404 12.699c-3.342 1.114-4.65.754-8 0h-3a104 104 0 0 1-5-2l2-3c4.123 0 8.05 1.815 12 3l1-34-2-1zm152-95h4l-2 5h-2v2h-2l-.723 1.64c-1.613 2.98-3.589 5.471-5.714 8.11l-2.372 2.984L366 159h-3l-1-2h4l-1-3h3l.188-3.312c.812-3.688.812-3.688 3.25-5.625C374 144 374 144 376 144v-5h3zm-35-10c0 4.088-1.132 7.374-3 11-2.625 2.375-2.625 2.375-5 4l-1 2h-2v3l-3-1-1 4-4-1 1-2h2l.695-1.66c1.681-3.014 3.825-5.258 6.18-7.778 3.19-3.424 6.245-6.871 9.125-10.562m-106.836 36.805 2.461.07 2.477.055L244 164c-2.543 2.543-4.954 3.288-8.312 4.563l-3.426 1.316c-2.77.952-5.38 1.64-8.262 2.121v2l2 1h-6l-1-3c1-2 1-2 3.871-3l3.566-1c3.71-1.042 7.317-3.888 10.727-4.195M152 128c1.714 2.965 2.083 3.62 1.313 7.125C152 138 152 138 149 140v2h-5l.188 2.813C144 148 144 148 142.688 149.875 141 151 141 151 138 151l5-10h2l.309-1.703c.827-2.75 2.123-4.688 3.754-7.047.547-.8 1.095-1.598 1.66-2.422zm61-97h62l-1 2h-59l-1 4-3-1zm-12 19c1.074 1.84 1.074 1.84 2 4-1.21 2.61-2.444 4.489-4.562 6.438-2.056 2.234-2.557 4.684-3.438 7.562a87 87 0 0 1-2 4l-4-2 1-3h2l.246-1.578c1.055-3.388 2.926-6.2 4.816-9.172l1.143-1.824Q199.597 52.209 201 50m114 200h1c.842 4.373 1.672 8.749 2.5 13.125l.723 3.75.683 3.633.635 3.332c.45 3.104.541 6.03.459 9.16-2.782-2.056-3.017-3.098-3.625-6.625L317 273l-1-1a75 75 0 0 1-.062-4.562l.027-2.504L316 263h-1c-1.286-8.429-1.286-8.429 0-13m-71-136c2 .938 2 .938 4 3 .189 2.18.052 4.276-.059 6.46.085 3.661 1.25 6.785 2.383 10.24.844 2.872 1.047 5.33.676 8.3l-2 2q-1.26-6.091-2.5-12.187l-.723-3.487-.683-3.369-.635-3.094c-.43-2.682-.546-5.154-.459-7.863m32-64 3 1q1.009 5.091 2 10.188l.578 2.908.547 2.822.508 2.587c.373 2.535.431 4.936.367 7.495-3.254-2.17-3.4-2.351-4.168-5.887l-.518-2.345c-.165-.81-.33-1.62-.502-2.456l-.537-2.396C276.262 59.177 275.812 54.843 276 50m-49 43c1.15 1.716 1.15 1.716 2 4-.859 2.198-.859 2.198-2.395 4.547l-1.646 2.558-1.772 2.645-1.736 2.691c-3.01 4.616-3.01 4.616-4.451 6.559h-1c.087-1.439.196-2.876.313-4.312l.175-2.426c.605-2.674 1.438-3.529 3.512-5.262 2.81-2.562 4.453-4.17 5-8h2zm-82 293 2 2c-.023 2.383-.023 2.383-.375 5.125l-.336 2.758L146 398c-5.09.837-9.97 1.154-15.125 1.125l-2.09.012c-3.72-.007-7.168-.25-10.785-1.137v-1h27l-1-4c.273-2.341.598-4.678 1-7m-16-222c1.328 2.656.65 4.247-.21 6.992-2.04 5.187-4.28 9.096-9.102 12.008L117 184c1.621-4.798 4.293-8.667 7.125-12.812l1.418-2.1Q127.266 166.54 129 164m-48 75 3 1c-.786 4.915-3.519 9.519-7 13-2.125-.375-2.125-.375-4-1l2.875-4.812 1.617-2.708A156 156 0 0 1 81 239m86-47h2c1.643 3.286.997 6.907.879 10.508l-.072 2.547q-.116 4.035-.244 8.07l-.159 5.465q-.195 6.705-.404 13.41h-1v-36l-3 1zm207-99 2 4c-2.505 3.49-3.805 5.132-8 6l-1 3h-2l-1 3-2-1v-2h2l.742-1.703c1.487-2.716 3.299-4.76 5.383-7.047l2.195-2.422zm-37 291h1v14l-30-1v-1l29-1zm-44-249c4 6 4.315 13.918 4 21h-2c-2.393-7.08-4.37-13.594-2-21"/><path fill="#32cd32" d="M283 77h1c.675 3.707 1.339 7.416 2 11.125l.578 3.172.547 3.086.508 2.825c.39 2.96.429 5.809.367 8.792l-2 1-.148-1.871c-.6-6.791-1.852-13.22-3.54-19.817-.396-2.935.085-5.429.688-8.312M106 286l4 2-5 9h-2l-.375 1.938L102 301l-2 1c.06-1.46.149-2.918.25-4.375l.14-2.46C101 293 101 293 103 291.874l2-.875c.812-2.555.812-2.555 1-5M239 87c3 1 3 1 4 3 .229 2.037.41 4.08.563 6.125l.253 3.32L244 102h1v5l-3 1zm-72 178h1v33l4-1 2 2-6 2c-1-1-1-1-1.114-4.326q0-2.214.016-4.428l.005-2.35c.005-2.486.018-4.972.03-7.459l.014-5.044q.017-6.197.049-12.393m-107 7c1.283 2.566.851 3.665.25 6.438l-.484 2.37c-.863 2.47-1.748 3.556-3.766 5.192-2.687 1.188-2.687 1.188-5 2 1.336-4.008 3.342-6.998 5.824-10.352 1.282-1.797 2.287-3.628 3.176-5.648m-21 32h2c3 3.462 3 3.462 3 6-4.385 3-4.385 3-7 3l-2 3h-2c1.566-4.308 3.683-8.062 6-12m282-21c3.47 6.21 4.38 13.967 4 21-4.137-6.205-5.49-10.644-5-18zm-65 18 2.172.883q2.715 1.074 5.469 2.047l2.609.945 2.64.93C271 307 271 307 271.798 309.133L272 311c-4.36-1.348-8.313-3.05-12.375-5.125l-3.21-1.633L254 303zm-57-30 2 1c-3.65 4.203-6.466 6.078-12 7l-3-2q3.18-1.544 6.375-3.062l3.586-1.723zM178 87h2c.25 2.813.25 2.813 0 6-1.875 1.875-1.875 1.875-4 3h-2v4l-4 1c1.32-3.573 2.895-6.64 5-9.812l1.563-2.395zm44 196c3.9.3 5.33 1.33 8 4 2.606.722 2.606.722 5 1l-1 4-14-7zm132-167c2 2 2 2 2 3.813-1.54 3.368-4.077 4.948-7 7.187v-2l-2-1zM50 288l2 3-1 2h-3l-1 8-6 2c1.388-3.89 3.215-6.966 5.625-10.312l1.914-2.676zm107-81 2 1c-1.642 4.776-4.265 8.794-7 13-1.315-4.158-.344-6.888 1-11l4-1zm75-30 4 1-1 31h-1l-.076-2.615q-.143-4.805-.296-9.61a1772 1772 0 0 1-.125-4.159q-.088-2.99-.187-5.98l-.11-3.633c-.083-3.053-.083-3.053-1.206-6.003m-24 100c3.813.673 7.437 1.461 11 3 .875 2.125.875 2.125 1 4l-2.125-.937C213.528 281.456 209.625 281 205 281l-1-2h4zm171-140h4l-2 5h-2v2h-2l-1 3h-2v-3h2v-5h3zm-242 14 2 3c-.77 3.155-1.33 4.586-4.125 6.313L133 161l2 4h-2v-2l-3 1c1.642-4.776 4.265-8.794 7-13m59-89c.366 4.273-.592 6.488-3 10l-4-2 1-3h2l.375-1.937L193 63c2-1 2-1 3-1m119 188h1q.795 3.873 1.563 7.75l.458 2.21c.725 3.706 1.077 6.433-.021 10.04v-3h-2c-1.646-5.642-2.607-11.287-1-17m-151-58 3 1c-1.308 5.71-3.486 10.286-7 15h-1v-5h3c.752-3.655 1.4-7.317 2-11m80-28c-2.256 2.256-4.046 2.966-7 4.125l-2.687 1.07C232 170 232 170 230 170c0-2 0-2 1.938-4.125 4.11-2.516 7.367-2.243 12.062-1.875m0-50c2 1 2 1 4 3 .368 4.567.114 8.543-1 13h-1q-.507-2.593-1-5.187l-.562-2.918c-.407-2.688-.517-5.183-.438-7.895m-34-78 2 3c-.932 3.106-2.192 5.288-4 8l-3-1c1.335-3.594 2.96-6.755 5-10m-16 111c.652 1.746.652 1.746 1 4-.996 2.035-.996 2.035-2.437 4.063-2.245 3.116-2.245 3.116-2.563 6.937h-2v-7h2l.875-2.312C192 150 192 150 194 147m-49-9 1 4h-2l.188 2.813C144 148 144 148 142.688 149.875 141 151 141 151 138 151l5-10h2zm127 134h2c2 7.625 2 7.625 2 11h-3c-1.176-3.674-1.074-7.17-1-11M98 212c1.188 1.625 1.188 1.625 2 4-1.375 3.25-1.375 3.25-3 6h-4c1.335-3.594 2.96-6.755 5-10m141-62c-1.453 3.83-3.429 5.12-7 7v-2h-5c3.54-2.36 7.635-5 12-5m0 128 9 3v3c-2 1-2 1-4.5.375-2.5-1.375-2.5-1.375-3.812-4zm-120-11 2 4-6 9-2-4a91 91 0 0 1 4-4h2zM381 85l4 2c-5.5 4.875-5.5 4.875-10 6zM96 304l2 3-6 10c-1-4-1-4 .313-6.75L94 308h2l-1-3zm116-85c1.418.115 2.834.243 4.25.375.789.07 1.578.14 2.39.21 2.446.43 4.208 1.201 6.36 2.415-4.61 1.297-8.338.711-13 0z"/><path fill="#32cd32" d="M52 287c1.43 2.354 2.087 3.48 1.625 6.25L53 295h-4v2h-2l1-4h3l-.062-2.437C51 288 51 288 52 287m267-131c.688 1.688.688 1.688 1 4-1.437 2.75-1.437 2.75-3 5l-4-1v-2h2v-2h2zm-50 102 .875 1.938c.953 2.214.953 2.214 3.125 3.062l-1 9c-2.19-3.285-2.353-4.831-2.625-8.687l-.227-3.012zm-3-23 3 1-2 11h-1q-.29-2.718-.562-5.437l-.317-3.06L265 236zm65-93 3 1-1 4-3-1-1 4-4-1 1-2h2l.938-1.937C330 143 330 143 331 142m59-18 3 1-4 7-3-1v-2h2l.438-1.937C389 125 389 125 390 124m-231-7h3l-1 5-5 1c1.875-4.875 1.875-4.875 3-6m29-46 2 3-3 1-.312 2.313C185.956 80.17 185.23 81.157 183 83l-2-1zm206.48 357.926 2.707.387 2.731.363L402 430c-3.062 1.784-5.22 2.229-8.75 2.125l-2.422-.055L389 432c1.79-2.314 2.489-2.985 5.48-3.074M220 229l7 2v2c-6.625.25-6.625.25-10-2h3zm124-102c0 3.31-.403 5.11-2 8-2.625.813-2.625.813-5 1q1.467-1.97 2.938-3.937l1.652-2.215C343 128 343 128 344 127m57 270h2l-1 19h-1q-.29-4.468-.562-8.937l-.17-2.577-.147-2.45-.143-2.27C400 398 400 398 401 397m-256-11 2 2c-.023 2.383-.023 2.383-.375 5.125l-.336 2.758L146 398h-5l4-1-.562-1.562c-.592-3.297-.005-6.16.562-9.438m46-97c-1.297 2.595-2.294 3.023-5 4-2.75-.375-2.75-.375-5-1v-2c3.406-.778 6.508-1.1 10-1m13-34h1v17l-4-2h2zm-54-34a85 85 0 0 1-2 7h-2l-1 3-1-5 2-1v-3c2-1 2-1 4-1m178-23 3 1-5 6-2-2c1.75-3.875 1.75-3.875 4-5m22-27 2 1c-.613 2.962-1.254 4.38-3 7h-2l-1 2v-4h2l.438-1.875C349 173 349 173 350 171m-155-7 10 1-1 3c-3.625.201-5.865-.142-9-2zm-26-63 2 3c-1 3-1 3-4.062 4.688L164 110c1.25-3.46 2.675-6.147 5-9m-40 63c1.6 3.2.032 5.723-1 9h-3c1.059-3.403 2.009-6.014 4-9m118-16-1 3-3 1c-2.187-1.437-2.187-1.437-4-3 3.067-1.862 4.597-2.215 8-1"/><path fill="#32cd32" d="m346 125 1 3 2 1c-2.052 2.248-3.007 3.002-6 4 .628-2.929 1.586-5.361 3-8M87 230c1.04 3.122 1.323 4.07 0 7-2.562 1.25-2.562 1.25-5 2 1.25-3.46 2.675-6.147 5-9m224-66 2 1-1 5-6 1zm14 148c2 2 2 2 2.125 5.625L327 321h-3zM112 191h1c.25 2.25.25 2.25 0 5-2 2.313-2 2.313-4 4l-2-1 1-3h2zm101-76 3 1-3 7-2-1c.875-4.75.875-4.75 2-7M96 299l4 1-1 6h-2zm166-77h2l1 6h-2l-1 3zm-143-40 2 1-4 7h-2c1.75-5.75 1.75-5.75 4-8m221-2 1 2c2.025.652 2.025.652 4 1l-1 2h-2l-1 2v-3h-2zm-135-50h2c-1.186 3.375-2.276 5.647-5 8v-6h2zm149-14 2 3c-1.25 1.563-1.25 1.563-3 3-2.187-.312-2.187-.312-4-1zm13-15 1 4-3 1-1 3-2-1v-2h2l.938-1.937C366 102 366 102 367 101m-46 182c2.094 3.402 2.18 6.053 2 10h-2c-1.125-6.625-1.125-6.625 0-10M81 239l3 1-1 4-5 1zm72-29h1c.37 7.508.37 7.508-1.5 10l-1.5 1c.875-7.625.875-7.625 2-11m37-38c2.438.125 2.438.125 5 1l3 4-10-3zm37-79 2 4-4 5v-6h2zm2-5 4 1-3 6h-1zM33 316l3 1 1 3-5 1zm217.563-18.25C253 299 253 299 254 302c-2.972-1.125-5.334-2.223-8-4 2-1 2-1 4.563-.25m-46.375-15.812L206 283a101 101 0 0 1-6 3l-2-1 1-3c3-1 3-1 5.188-.062M111 279l3 1c-1.074 2.915-1.778 4.778-4 7l-1-3h2zm88-8 2 1c-2.312 2.5-2.312 2.5-5 5h-3l4-2v-3zM68 260l2 4-3 3-3-1zm9-14c.625 1.813.625 1.813 1 4l-2 3-3-1zm283-86c2.125.375 2.125.375 4 1l-5 5c-.625-1.875-.625-1.875-1-4zm-109-24c.125 2.875.125 2.875 0 6l-2 2-1-7c2-1 2-1 3-1"/></svg>