<?xml version="1.0" encoding="UTF-8"?>
<svg version="1.1" xmlns="http://www.w3.org/2000/svg" width="500" height="500">
<path d="M0 0 C3.67244263 0.16483355 7.34663968 0.2369854 11.02172852 0.31738281 C18.21013764 0.48809541 25.38982295 0.76041198 32.57250977 1.09863281 C33.8449343 4.83660074 34.90208874 8.37532258 35.51000977 12.27832031 C35.7614978 13.84731079 35.7614978 13.84731079 36.01806641 15.44799805 C36.20103271 16.61145752 36.38399902 17.77491699 36.57250977 18.97363281 C39.47521142 36.91414969 42.70603299 54.79489506 45.91821289 72.68212891 C46.33555922 75.00715632 46.75287726 77.33218881 47.17016602 79.65722656 C47.37398392 80.79173752 47.57780182 81.92624847 47.78779602 83.09513855 C49.12385457 90.54738816 50.42663461 98.00487386 51.71313477 105.46582031 C53.11797109 113.59739028 54.60889259 121.70043682 56.26000977 129.78613281 C56.57808594 131.3687793 56.57808594 131.3687793 56.90258789 132.98339844 C58.13047905 139.06519063 58.13047905 139.06519063 59.57250977 145.09863281 C60.19899414 144.30457031 60.82547852 143.51050781 61.47094727 142.69238281 C62.6968457 141.16097656 62.6968457 141.16097656 63.94750977 139.59863281 C64.75961914 138.57769531 65.57172852 137.55675781 66.40844727 136.50488281 C67.12258789 135.71082031 67.83672852 134.91675781 68.57250977 134.09863281 C69.23250977 134.09863281 69.89250977 134.09863281 70.57250977 134.09863281 C70.57250977 133.43863281 70.57250977 132.77863281 70.57250977 132.09863281 C71.23250977 132.09863281 71.89250977 132.09863281 72.57250977 132.09863281 C72.57250977 131.43863281 72.57250977 130.77863281 72.57250977 130.09863281 C73.23250977 130.09863281 73.89250977 130.09863281 74.57250977 130.09863281 C74.83032227 129.53660156 75.08813477 128.97457031 75.35375977 128.39550781 C76.71420753 125.83158702 78.30039938 123.64636916 80.07250977 121.34863281 C80.68094727 120.54941406 81.28938477 119.75019531 81.91625977 118.92675781 C82.73610352 118.02183594 82.73610352 118.02183594 83.57250977 117.09863281 C84.23250977 117.09863281 84.89250977 117.09863281 85.57250977 117.09863281 C85.80583008 116.54691406 86.03915039 115.99519531 86.27954102 115.42675781 C87.91270261 112.48608014 89.96590184 110.3078603 92.26000977 107.84863281 C93.1693721 106.86472724 94.07822431 105.88034994 94.98657227 104.89550781 C95.83993164 103.97253906 96.69329102 103.04957031 97.57250977 102.09863281 C102.48439923 96.64097785 107.10495068 90.98696928 111.65454102 85.22363281 C112.2874707 84.52238281 112.92040039 83.82113281 113.57250977 83.09863281 C114.23250977 83.09863281 114.89250977 83.09863281 115.57250977 83.09863281 C116.00563477 82.20144531 116.00563477 82.20144531 116.44750977 81.28613281 C117.57250977 79.09863281 117.57250977 79.09863281 119.57250977 76.09863281 C120.23250977 76.09863281 120.89250977 76.09863281 121.57250977 76.09863281 C121.7980957 75.55335937 122.02368164 75.00808594 122.25610352 74.44628906 C123.9639135 71.40061013 126.24295421 69.04530197 128.63500977 66.53613281 C133.27887056 61.57841427 137.63498792 56.47644024 141.89282227 51.18066406 C143.57250977 49.09863281 143.57250977 49.09863281 144.57250977 48.09863281 C160.08250977 48.09863281 175.59250977 48.09863281 191.57250977 48.09863281 C191.57250977 90.00863281 191.57250977 131.91863281 191.57250977 175.09863281 C204.11250977 175.09863281 216.65250977 175.09863281 229.57250977 175.09863281 C229.57250977 187.63863281 229.57250977 200.17863281 229.57250977 213.09863281 C217.03250977 213.09863281 204.49250977 213.09863281 191.57250977 213.09863281 C191.57250977 239.49863281 191.57250977 265.89863281 191.57250977 293.09863281 C177.38250977 293.09863281 163.19250977 293.09863281 148.57250977 293.09863281 C148.57250977 266.69863281 148.57250977 240.29863281 148.57250977 213.09863281 C123.16250977 213.09863281 97.75250977 213.09863281 71.57250977 213.09863281 C72.56250977 217.38863281 73.55250977 221.67863281 74.57250977 226.09863281 C75.07024128 228.49367791 75.55449166 230.89164217 76.01464844 233.29418945 C76.37468208 235.16531151 76.37468208 235.16531151 76.74198914 237.07423401 C76.99164887 238.38572129 77.24114152 239.69724039 77.49047852 241.00878906 C77.75512192 242.3931234 78.01987947 243.77743591 78.28474426 245.16172791 C78.83345657 248.03287183 79.38027094 250.9043691 79.92578125 253.77612305 C80.62427313 257.45195326 81.32846304 261.12666676 82.03412914 264.80112553 C82.57972653 267.64621104 83.1219277 270.49193582 83.66314125 273.3378582 C83.92155056 274.6940333 84.18110843 276.04999009 84.44185448 277.40571785 C84.80427136 279.29234871 85.16152955 281.17996834 85.51855469 283.06762695 C85.72268478 284.13872208 85.92681488 285.2098172 86.13713074 286.31336975 C86.57250977 289.09863281 86.57250977 289.09863281 86.57250977 293.09863281 C65.28420097 294.42893892 48.18739902 295.37725973 30.03442383 282.72363281 C25.86395843 279.97089405 21.38389523 277.88025467 16.88500977 275.72363281 C15.22485373 274.90595826 13.56593232 274.08577066 11.90844727 273.26269531 C11.15273437 272.88790039 10.39702148 272.51310547 9.6184082 272.12695312 C6.21407484 270.41584905 2.88187067 268.58377004 -0.44702148 266.73144531 C-5.46533265 263.98222635 -10.54471295 261.3478514 -15.6171875 258.70019531 C-16.39505615 258.29285156 -17.1729248 257.88550781 -17.97436523 257.46582031 C-18.73040039 257.07233398 -19.48643555 256.67884766 -20.26538086 256.2734375 C-22.29950285 255.16817609 -24.23506113 253.96449019 -26.19311523 252.73144531 C-29.18869181 250.90667167 -29.18869181 250.90667167 -31.88061523 251.12988281 C-35.39194997 252.46548253 -38.79452375 253.97099011 -42.17749023 255.59863281 C-42.91394775 255.94812988 -43.65040527 256.29762695 -44.40917969 256.65771484 C-50.60945883 259.63200879 -56.68983088 262.81871486 -62.7175293 266.12792969 C-66.54506645 268.20685528 -70.22625973 269.85721167 -74.42749023 271.09863281 C-75.42749023 270.09863281 -75.42749023 270.09863281 -75.54101562 266.7722168 C-75.54085653 265.29637725 -75.53516337 263.82053213 -75.52514648 262.34472656 C-75.52302406 261.18155663 -75.52302406 261.18155663 -75.52085876 259.99488831 C-75.51524369 257.50859787 -75.5026887 255.02239621 -75.48999023 252.53613281 C-75.48497717 250.85449348 -75.48041393 249.17285275 -75.47631836 247.49121094 C-75.46526937 243.36031715 -75.44799468 239.22949005 -75.42749023 235.09863281 C-81.36988844 234.84436342 -87.30213091 234.69784808 -93.24975586 234.64697266 C-95.26767372 234.61501906 -97.2853627 234.55462599 -99.30151367 234.46435547 C-110.39981759 233.61293181 -110.39981759 233.61293181 -120.29159546 237.62335205 C-123.46215065 241.37290042 -125.54008091 245.54215384 -127.47758484 250.02651978 C-129.01310198 253.37607974 -131.00013387 256.37520005 -132.98999023 259.47363281 C-135.32373519 263.22246673 -135.32373519 263.22246673 -137.42749023 267.09863281 C-138.08749023 267.09863281 -138.74749023 267.09863281 -139.42749023 267.09863281 C-139.54825928 267.68273926 -139.66902832 268.2668457 -139.79345703 268.86865234 C-140.44579683 271.16301959 -141.29714079 272.77142159 -142.57202148 274.77832031 C-143.00192383 275.46023438 -143.43182617 276.14214844 -143.87475586 276.84472656 C-144.3252832 277.54726563 -144.77581055 278.24980469 -145.23999023 278.97363281 C-145.67891602 279.6684375 -146.1178418 280.36324219 -146.57006836 281.07910156 C-147.84594536 283.09244685 -149.12844911 285.10014398 -150.42749023 287.09863281 C-150.86569092 288.15791992 -151.3038916 289.21720703 -151.75537109 290.30859375 C-154.94766313 293.6417608 -155.82846304 293.55821305 -160.29760742 293.77978516 C-162.77339662 293.77883506 -165.24931166 293.74492646 -167.72436523 293.68457031 C-169.02827209 293.67608063 -170.33217896 293.66759094 -171.67559814 293.65884399 C-175.13520821 293.63598029 -178.59329662 293.57708389 -182.05230713 293.51062012 C-185.58471084 293.44914114 -189.1173615 293.42181735 -192.65014648 293.39160156 C-199.57655118 293.32733412 -206.50194758 293.22498763 -213.42749023 293.09863281 C-212.57092018 289.07156387 -210.78021146 286.42657215 -208.42749023 283.03613281 C-205.46245605 278.80040911 -205.46245605 278.80040911 -203.42749023 274.09863281 C-202.76749023 274.09863281 -202.10749023 274.09863281 -201.42749023 274.09863281 C-201.31050781 273.51831299 -201.19352539 272.93799316 -201.07299805 272.34008789 C-200.38564135 269.95331715 -199.45754421 268.30799465 -198.09936523 266.23535156 C-197.39360352 265.15157227 -197.39360352 265.15157227 -196.67358398 264.04589844 C-196.17987305 263.30017578 -195.68616211 262.55445313 -195.17749023 261.78613281 C-194.69924805 261.05201172 -194.22100586 260.31789063 -193.72827148 259.56152344 C-191.44755461 256.07864008 -189.12141447 252.64388064 -186.68139648 249.27050781 C-184.57512525 246.30639647 -182.95359808 243.3918129 -181.42749023 240.09863281 C-180.76749023 240.09863281 -180.10749023 240.09863281 -179.42749023 240.09863281 C-179.31139404 239.52081055 -179.19529785 238.94298828 -179.07568359 238.34765625 C-178.37772266 235.92595526 -177.419365 234.22920023 -176.05639648 232.11425781 C-175.56969482 231.35226074 -175.08299316 230.59026367 -174.58154297 229.80517578 C-174.05633057 228.9945166 -173.53111816 228.18385742 -172.98999023 227.34863281 C-171.88802342 225.62753745 -170.78646696 223.90617928 -169.68530273 222.18457031 C-169.13390625 221.32573242 -168.58250977 220.46689453 -168.0144043 219.58203125 C-165.76697559 216.0649782 -163.56572484 212.52000539 -161.36499023 208.97363281 C-156.15798008 200.61352362 -150.79335786 192.3572836 -145.42749023 184.09863281 C-143.73699622 181.49639073 -142.04966695 178.89214412 -140.36499023 176.28613281 C-139.65213867 175.1865625 -138.93928711 174.08699219 -138.20483398 172.95410156 C-136.80311121 170.70210299 -135.54869031 168.49788478 -134.42749023 166.09863281 C-133.76749023 166.09863281 -133.10749023 166.09863281 -132.42749023 166.09863281 C-132.02336914 165.02355469 -132.02336914 165.02355469 -131.61108398 163.92675781 C-127.17016983 153.31546459 -119.96752349 143.6524422 -113.69946289 134.05078125 C-109.17266934 127.10332612 -104.78320746 120.11158125 -100.68920898 112.89941406 C-100.2728418 112.30515625 -99.85647461 111.71089844 -99.42749023 111.09863281 C-98.76749023 111.09863281 -98.10749023 111.09863281 -97.42749023 111.09863281 C-97.31139404 110.52081055 -97.19529785 109.94298828 -97.07568359 109.34765625 C-96.37772266 106.92595526 -95.419365 105.22920023 -94.05639648 103.11425781 C-93.56985596 102.35250244 -93.08331543 101.59074707 -92.58203125 100.8059082 C-92.05665771 99.99500732 -91.53128418 99.18410645 -90.98999023 98.34863281 C-89.88540952 96.62363746 -88.78124879 94.8983731 -87.67749023 93.17285156 C-87.12577148 92.31353027 -86.57405273 91.45420898 -86.00561523 90.56884766 C-83.80179208 87.1192371 -81.64630975 83.64053676 -79.48999023 80.16113281 C-71.53130702 67.37787343 -63.31045376 54.74868655 -54.81811523 42.31347656 C-53.2850711 40.06577679 -53.2850711 40.06577679 -52.42749023 37.09863281 C-51.76749023 37.09863281 -51.10749023 37.09863281 -50.42749023 37.09863281 C-50.30237061 36.50727539 -50.17725098 35.91591797 -50.04833984 35.30664062 C-49.05839828 31.78598332 -46.95354296 28.89707083 -44.98999023 25.84863281 C-44.17846373 24.57280009 -43.36728644 23.2967452 -42.55639648 22.02050781 C-42.05946289 21.30443359 -41.5625293 20.58835937 -41.05053711 19.85058594 C-39.67222412 17.51359075 -38.84752022 15.54958622 -37.96069336 13.01855469 C-31.2501528 -3.71598016 -15.32880852 -0.76087099 0 0 Z M-5.42749023 52.09863281 C-6.2467296 53.33172069 -7.01509171 54.5986152 -7.76342773 55.87597656 C-8.48574585 57.09824951 -8.48574585 57.09824951 -9.22265625 58.34521484 C-9.74400146 59.23321777 -10.26534668 60.1212207 -10.80249023 61.03613281 C-14.74351196 67.68288667 -18.75411128 74.26057087 -22.98999023 80.72363281 C-26.82442944 86.57914967 -30.54318671 92.49172014 -34.17749023 98.47363281 C-44.83978348 116.01868203 -44.83978348 116.01868203 -49.23999023 121.91113281 C-51.35765281 124.99686971 -52.33578528 127.55676651 -53.42749023 131.09863281 C-51.58588856 131.9997778 -49.72841079 132.86851712 -47.86499023 133.72363281 C-46.83245117 134.21089844 -45.79991211 134.69816406 -44.73608398 135.20019531 C-38.47014798 136.90168915 -33.21663094 133.67700599 -27.61499023 130.97363281 C-26.30451661 130.34841449 -24.99328305 129.72478717 -23.68139648 129.10253906 C-22.65103271 128.61358154 -22.65103271 128.61358154 -21.59985352 128.11474609 C-17.77508403 126.32572715 -13.91400903 124.61902695 -10.05249023 122.91113281 C-8.9661731 122.43039307 -8.9661731 122.43039307 -7.85791016 121.93994141 C-6.44411446 121.31484738 -5.03013686 120.69016459 -3.6159668 120.06591797 C0.11625829 118.41631112 3.84428672 116.75726033 7.57250977 115.09863281 C7.37616943 114.07205566 7.1798291 113.04547852 6.97753906 111.98779297 C6.2317617 108.08536444 5.48880111 104.18240358 4.74658203 100.27929688 C4.42830935 98.60760677 4.10932775 96.93605144 3.78955078 95.26464844 C1.94047101 85.59701877 0.15085689 75.92890076 -1.37263489 66.20376587 C-2.1395893 61.42066146 -3.19913653 56.78536561 -4.42749023 52.09863281 C-4.75749023 52.09863281 -5.08749023 52.09863281 -5.42749023 52.09863281 Z M147.57250977 99.09863281 C143.95814038 102.59891416 143.95814038 102.59891416 142.57250977 107.09863281 C141.91250977 107.09863281 141.25250977 107.09863281 140.57250977 107.09863281 C139.91250977 108.74863281 139.25250977 110.39863281 138.57250977 112.09863281 C137.91250977 112.09863281 137.25250977 112.09863281 136.57250977 112.09863281 C136.57250977 112.75863281 136.57250977 113.41863281 136.57250977 114.09863281 C135.91250977 114.09863281 135.25250977 114.09863281 134.57250977 114.09863281 C133.10150031 115.74545643 133.10150031 115.74545643 131.57250977 117.91113281 C127.94053983 122.72843185 123.96430264 127.13523325 119.88500977 131.57519531 C114.92055786 136.24756592 114.92055786 136.24756592 112.57250977 142.09863281 C111.91250977 142.09863281 111.25250977 142.09863281 110.57250977 142.09863281 C107.54733067 145.15421704 107.54733067 145.15421704 106.57250977 149.09863281 C105.91250977 149.09863281 105.25250977 149.09863281 104.57250977 149.09863281 C102.17430672 151.73548028 102.17430672 151.73548028 101.57250977 155.09863281 C100.91250977 155.09863281 100.25250977 155.09863281 99.57250977 155.09863281 C97.99059159 156.58289514 97.99059159 156.58289514 96.44750977 158.47363281 C95.90868164 159.10011719 95.36985352 159.72660156 94.81469727 160.37207031 C93.3778383 162.01471709 93.3778383 162.01471709 93.57250977 164.09863281 C92.91250977 164.09863281 92.25250977 164.09863281 91.57250977 164.09863281 C90.13448795 165.68969711 88.76925642 167.34723431 87.44750977 169.03613281 C86.72305664 169.95265625 85.99860352 170.86917969 85.25219727 171.81347656 C83.47379994 173.76024587 83.47379994 173.76024587 83.57250977 175.09863281 C105.02250977 175.09863281 126.47250977 175.09863281 148.57250977 175.09863281 C148.57250977 150.01863281 148.57250977 124.93863281 148.57250977 99.09863281 C148.24250977 99.09863281 147.91250977 99.09863281 147.57250977 99.09863281 Z M-0.36108398 134.55957031 C-1.09262695 134.86636719 -1.82416992 135.17316406 -2.57788086 135.48925781 C-3.33262695 135.81410156 -4.08737305 136.13894531 -4.86499023 136.47363281 C-6.3636473 137.10654206 -7.86234421 137.73935695 -9.36108398 138.37207031 C-10.06217285 138.67081055 -10.76326172 138.96955078 -11.4855957 139.27734375 C-13.78678565 140.25059029 -16.10262987 141.18347903 -18.42749023 142.09863281 C-18.42749023 142.75863281 -18.42749023 143.41863281 -18.42749023 144.09863281 C-12.48749023 146.57363281 -12.48749023 146.57363281 -6.42749023 149.09863281 C-6.09749023 181.43863281 -5.76749023 213.77863281 -5.42749023 247.09863281 C0.3783038 250.49520586 0.3783038 250.49520586 6.57250977 252.09863281 C6.74913142 243.14047898 6.91492269 234.18214036 7.07250977 225.22363281 C7.08438702 224.54876957 7.09626427 223.87390633 7.10850143 223.17859268 C7.63267464 193.1501735 7.68532195 163.13148715 7.57250977 133.09863281 C4.02468678 133.09863281 2.71309421 133.25177697 -0.36108398 134.55957031 Z M-57.42749023 142.09863281 C-57.42749023 177.07863281 -57.42749023 212.05863281 -57.42749023 248.09863281 C-51.48749023 245.45863281 -45.54749023 242.81863281 -39.42749023 240.09863281 C-39.31727213 209.74795912 -39.33101332 179.4325501 -40.42749023 149.09863281 C-41.94419387 148.29908281 -43.46611022 147.50941893 -44.98999023 146.72363281 C-45.8369043 146.28277344 -46.68381836 145.84191406 -47.55639648 145.38769531 C-51.03004278 143.74575596 -51.03004278 143.74575596 -57.42749023 142.09863281 Z M-29.42749023 152.09863281 C-29.42749023 164.30863281 -29.42749023 176.51863281 -29.42749023 189.09863281 C-22.99249023 190.58363281 -22.99249023 190.58363281 -16.42749023 192.09863281 C-16.42749023 180.21863281 -16.42749023 168.33863281 -16.42749023 156.09863281 C-20.71749023 154.77863281 -25.00749023 153.45863281 -29.42749023 152.09863281 Z M-76.42749023 167.09863281 C-77.55837532 168.77563398 -78.63956726 170.48616347 -79.70092773 172.20800781 C-80.69092773 173.80515625 -80.69092773 173.80515625 -81.70092773 175.43457031 C-82.40170481 176.57243337 -83.10222312 177.71045584 -83.80249023 178.84863281 C-85.16282021 181.0527765 -86.52473821 183.25594108 -87.88842773 185.45800781 C-88.49477051 186.4425293 -89.10111328 187.42705078 -89.72583008 188.44140625 C-91.42749023 191.09863281 -91.42749023 191.09863281 -93.14868164 193.26367188 C-94.71337098 195.1360741 -94.71337098 195.1360741 -94.42749023 198.09863281 C-95.08749023 198.09863281 -95.74749023 198.09863281 -96.42749023 198.09863281 C-96.09749023 199.08863281 -95.76749023 200.07863281 -95.42749023 201.09863281 C-85.52749023 200.60363281 -85.52749023 200.60363281 -75.42749023 200.09863281 C-75.42749023 189.20863281 -75.42749023 178.31863281 -75.42749023 167.09863281 C-75.75749023 167.09863281 -76.08749023 167.09863281 -76.42749023 167.09863281 Z M20.57250977 200.09863281 C20.5470722 207.35773975 20.52960613 214.61683511 20.51757812 221.87597656 C20.51256166 224.34342885 20.50574696 226.81087818 20.49707031 229.27832031 C20.48488688 232.83301525 20.47925446 236.38767074 20.47485352 239.94238281 C20.46969223 241.03852905 20.46453094 242.13467529 20.45921326 243.26403809 C20.45879965 248.96167529 20.54244494 254.48488149 21.57250977 260.09863281 C23.44105933 262.12333199 23.44105933 262.12333199 25.94750977 263.16113281 C26.73899414 263.56460938 27.53047852 263.96808594 28.34594727 264.38378906 C30.70457849 265.38299259 30.70457849 265.38299259 33.57250977 264.09863281 C33.40235352 263.25945312 33.23219727 262.42027344 33.05688477 261.55566406 C30.01641882 246.46654315 27.05856523 231.36732918 24.58300781 216.17407227 C23.70169629 210.78609599 22.69280708 205.44158923 21.57250977 200.09863281 C21.24250977 200.09863281 20.91250977 200.09863281 20.57250977 200.09863281 Z M-27.42749023 202.09863281 C-27.42749023 212.98863281 -27.42749023 223.87863281 -27.42749023 235.09863281 C-23.79749023 236.41863281 -20.16749023 237.73863281 -16.42749023 239.09863281 C-16.42749023 227.54863281 -16.42749023 215.99863281 -16.42749023 204.09863281 C-22.1639671 201.83510967 -22.1639671 201.83510967 -27.42749023 202.09863281 Z " fill="#32cd32" transform="translate(242.427490234375,29.9013671875)"/>
<path d="M0 0 C0.76957031 0.00257813 1.53914063 0.00515625 2.33203125 0.0078125 C3.08871094 0.00523437 3.84539062 0.00265625 4.625 0 C7.48586616 0.15080535 10.31867234 0.66183601 13.14453125 1.1328125 C13.14453125 12.0228125 13.14453125 22.9128125 13.14453125 34.1328125 C22.64346089 34.09321624 22.64346089 34.09321624 32.14233398 34.04272461 C33.31739502 34.04022705 34.49245605 34.03772949 35.703125 34.03515625 C37.51768188 34.02730103 37.51768188 34.02730103 39.36889648 34.01928711 C42.14453125 34.1328125 42.14453125 34.1328125 43.14453125 35.1328125 C43.21724866 37.48594805 43.22823993 39.84114918 43.20703125 42.1953125 C43.19800781 43.48566406 43.18898438 44.77601563 43.1796875 46.10546875 C43.16808594 47.10449219 43.15648437 48.10351562 43.14453125 49.1328125 C33.15774769 50.38957627 23.18821392 50.22648415 13.14453125 50.1328125 C13.14976807 51.06665771 13.15500488 52.00050293 13.16040039 52.96264648 C13.17740745 56.41594046 13.18996427 59.86919017 13.19946289 63.32250977 C13.20450246 64.81926168 13.21133412 66.31600866 13.2199707 67.81274414 C13.23205284 69.95981057 13.23776316 72.10681212 13.2421875 74.25390625 C13.24742432 75.5473999 13.25266113 76.84089355 13.25805664 78.17358398 C13.14453125 81.1328125 13.14453125 81.1328125 12.14453125 82.1328125 C10.19267852 82.39500167 8.23201452 82.59309568 6.26953125 82.7578125 C5.19960937 82.85320312 4.1296875 82.94859375 3.02734375 83.046875 C0.14453125 83.1328125 0.14453125 83.1328125 -2.85546875 82.1328125 C-2.85546875 71.2428125 -2.85546875 60.3528125 -2.85546875 49.1328125 C-5.82546875 49.6278125 -5.82546875 49.6278125 -8.85546875 50.1328125 C-10.71465471 50.21945354 -12.57629771 50.26335741 -14.4375 50.265625 C-15.95827148 50.26755859 -15.95827148 50.26755859 -17.50976562 50.26953125 C-18.55197266 50.26566406 -19.59417969 50.26179688 -20.66796875 50.2578125 C-22.2602832 50.26361328 -22.2602832 50.26361328 -23.88476562 50.26953125 C-25.39586914 50.26759766 -25.39586914 50.26759766 -26.9375 50.265625 C-27.85764893 50.26449707 -28.77779785 50.26336914 -29.72583008 50.26220703 C-31.85546875 50.1328125 -31.85546875 50.1328125 -32.85546875 49.1328125 C-32.85546875 44.1828125 -32.85546875 39.2328125 -32.85546875 34.1328125 C-22.95546875 34.1328125 -13.05546875 34.1328125 -2.85546875 34.1328125 C-2.86707031 31.76222656 -2.87867188 29.39164062 -2.890625 26.94921875 C-2.89841571 24.66235488 -2.90449239 22.37549246 -2.91040039 20.08862305 C-2.91544032 18.49486636 -2.92227225 16.90111431 -2.9309082 15.30737305 C-2.94298874 13.02130997 -2.9487003 10.73530783 -2.953125 8.44921875 C-2.95828629 7.73254532 -2.96344757 7.01587189 -2.96876526 6.27748108 C-2.96896138 4.56217578 -2.91738882 2.84699984 -2.85546875 1.1328125 C-1.85546875 0.1328125 -1.85546875 0.1328125 0 0 Z " fill="#32cd32" transform="translate(198.85546875,348.8671875)"/>
<path d="M0 0 C5.28 0 10.56 0 16 0 C16 10.89 16 21.78 16 33 C25.9 33 35.8 33 46 33 C47.16968953 35.33937907 47.13364221 36.77369368 47.125 39.375 C47.12886719 40.53128906 47.12886719 40.53128906 47.1328125 41.7109375 C47.00389788 43.9328189 46.61383717 45.86618508 46 48 C39.8323971 49.09857724 33.81584877 49.11539104 27.5625 49.0625 C26.54478516 49.05798828 25.52707031 49.05347656 24.47851562 49.04882812 C21.98561491 49.03712437 19.49283926 49.02072848 17 49 C16.96241577 50.44620728 16.96241577 50.44620728 16.92407227 51.92163086 C16.83014694 55.48687842 16.72989061 59.05192433 16.62768555 62.61694336 C16.58428015 64.16214289 16.54260929 65.70739214 16.50268555 67.25268555 C16.44511801 69.46939096 16.38138576 71.6858448 16.31640625 73.90234375 C16.29133751 74.94454323 16.29133751 74.94454323 16.26576233 76.00779724 C16.11387171 80.88612829 16.11387171 80.88612829 15 82 C12.66465099 81.96205058 10.3303482 81.84489247 8 81.6875 C6.72125 81.60886719 5.4425 81.53023438 4.125 81.44921875 C2.578125 81.22685547 2.578125 81.22685547 1 81 C-0.62527849 77.74944301 -0.14251959 74.1931555 -0.125 70.625 C-0.13080078 69.50158203 -0.13080078 69.50158203 -0.13671875 68.35546875 C-0.12578154 61.86970544 0.39490529 55.45480307 1 49 C0.06615479 49.00523682 -0.86769043 49.01047363 -1.82983398 49.01586914 C-5.28312796 49.0328762 -8.73637767 49.04543302 -12.18969727 49.05493164 C-13.68644918 49.05997121 -15.18319616 49.06680287 -16.67993164 49.07543945 C-18.82699807 49.08752159 -20.97399962 49.09323191 -23.12109375 49.09765625 C-25.06133423 49.10551147 -25.06133423 49.10551147 -27.04077148 49.11352539 C-30 49 -30 49 -31 48 C-31 43.05 -31 38.1 -31 33 C-20.77 33 -10.54 33 0 33 C0 22.11 0 11.22 0 0 Z " fill="#32cd32" transform="translate(100,350)"/>
<path d="M0 0 C1.07507813 0.00257813 2.15015625 0.00515625 3.2578125 0.0078125 C4.32773437 0.00523437 5.39765625 0.00265625 6.5 0 C9.3828125 0.1328125 9.3828125 0.1328125 12.3828125 1.1328125 C12.0528125 12.0228125 11.7228125 22.9128125 11.3828125 34.1328125 C21.6128125 34.1328125 31.8428125 34.1328125 42.3828125 34.1328125 C43.08612447 39.05599631 43.67086948 43.23584378 43.3828125 48.1328125 C41.3828125 50.1328125 41.3828125 50.1328125 38.49365234 50.35986328 C37.28918457 50.34938965 36.0847168 50.33891602 34.84375 50.328125 C33.67118652 50.32312988 32.49862305 50.31813477 31.29052734 50.31298828 C29.79473145 50.29478027 28.29893555 50.27657227 26.7578125 50.2578125 C22.0140625 50.2165625 17.2703125 50.1753125 12.3828125 50.1328125 C12.3828125 60.6928125 12.3828125 71.2528125 12.3828125 82.1328125 C2.3828125 83.1328125 2.3828125 83.1328125 -2.6171875 83.1328125 C-4.5402764 81.2097236 -3.87040588 77.66210765 -3.93359375 75.03515625 C-3.95437485 74.32629776 -3.97515594 73.61743927 -3.99656677 72.88710022 C-4.06213348 70.61493945 -4.1209798 68.34265986 -4.1796875 66.0703125 C-4.22286599 64.53319067 -4.26648005 62.996081 -4.31054688 61.45898438 C-4.41782199 57.6837166 -4.51906887 53.9083289 -4.6171875 50.1328125 C-5.61516357 50.14066772 -5.61516357 50.14066772 -6.63330078 50.14868164 C-9.66958661 50.16956503 -12.70585728 50.1825087 -15.7421875 50.1953125 C-16.78890625 50.20369141 -17.835625 50.21207031 -18.9140625 50.22070312 C-23.926278 50.23656457 -28.69384662 50.21458463 -33.6171875 49.1328125 C-33.81109479 46.82084095 -33.99715117 44.5082096 -34.1796875 42.1953125 C-34.33630859 40.26365234 -34.33630859 40.26365234 -34.49609375 38.29296875 C-34.53605469 37.25011719 -34.57601563 36.20726562 -34.6171875 35.1328125 C-33.6171875 34.1328125 -33.6171875 34.1328125 -30.84155273 34.01928711 C-29.63184814 34.02452393 -28.42214355 34.02976074 -27.17578125 34.03515625 C-25.87060547 34.03837891 -24.56542969 34.04160156 -23.22070312 34.04492188 C-21.8320306 34.05327849 -20.44335873 34.06174345 -19.0546875 34.0703125 C-17.66211094 34.07532584 -16.26953269 34.07988903 -14.87695312 34.08398438 C-11.4569888 34.09581816 -8.03710906 34.1123037 -4.6171875 34.1328125 C-4.59213135 33.13838135 -4.5670752 32.1439502 -4.54125977 31.11938477 C-4.44733868 27.44232503 -4.34708131 23.765461 -4.24487305 20.08862305 C-4.20146604 18.4949195 -4.15979531 16.9011677 -4.11987305 15.30737305 C-4.06230943 13.02117342 -3.99857601 10.73521801 -3.93359375 8.44921875 C-3.91688126 7.73254532 -3.90016876 7.01587189 -3.88294983 6.27748108 C-3.69908663 0.18771484 -3.69908663 0.18771484 0 0 Z " fill="#32cd32" transform="translate(391.6171875,348.8671875)"/>
<path d="M0 0 C1.08410156 0.00257813 2.16820312 0.00515625 3.28515625 0.0078125 C4.90744141 0.00394531 4.90744141 0.00394531 6.5625 0 C9.34765625 0.1328125 9.34765625 0.1328125 11.34765625 1.1328125 C11.34765625 12.0228125 11.34765625 22.9128125 11.34765625 34.1328125 C21.24765625 34.1328125 31.14765625 34.1328125 41.34765625 34.1328125 C41.34765625 39.0828125 41.34765625 44.0328125 41.34765625 49.1328125 C39.76194646 50.71852229 38.13300512 50.26261834 35.9375 50.265625 C35.02935547 50.26691406 34.12121094 50.26820313 33.18554688 50.26953125 C32.22841797 50.26566406 31.27128906 50.26179688 30.28515625 50.2578125 C28.89006836 50.26361328 28.89006836 50.26361328 27.46679688 50.26953125 C26.54962891 50.26824219 25.63246094 50.26695312 24.6875 50.265625 C23.85597412 50.26449707 23.02444824 50.26336914 22.16772461 50.26220703 C18.52255176 50.09495384 14.96430857 49.61785863 11.34765625 49.1328125 C11.35289307 50.12724365 11.35812988 51.1216748 11.36352539 52.14624023 C11.38157666 55.82315171 11.39308871 59.50005925 11.40258789 63.17700195 C11.40762782 64.77075864 11.41445975 66.36451069 11.4230957 67.95825195 C11.43517624 70.24431503 11.4408878 72.53031717 11.4453125 74.81640625 C11.45047379 75.53307968 11.45563507 76.24975311 11.46095276 76.98814392 C11.46114888 78.70344922 11.40957632 80.41862516 11.34765625 82.1328125 C10.34765625 83.1328125 10.34765625 83.1328125 7.6953125 83.265625 C6.61121094 83.26304687 5.52710938 83.26046875 4.41015625 83.2578125 C2.78787109 83.26167969 2.78787109 83.26167969 1.1328125 83.265625 C-1.65234375 83.1328125 -1.65234375 83.1328125 -3.65234375 82.1328125 C-3.65234375 71.5728125 -3.65234375 61.0128125 -3.65234375 50.1328125 C-13.80947467 50.17241072 -13.80947467 50.17241072 -23.96655273 50.22290039 C-25.22282471 50.22539795 -26.47909668 50.22789551 -27.7734375 50.23046875 C-29.71367798 50.23832397 -29.71367798 50.23832397 -31.69311523 50.24633789 C-34.65234375 50.1328125 -34.65234375 50.1328125 -35.65234375 49.1328125 C-35.75143677 46.80121195 -35.78204879 44.46651308 -35.77734375 42.1328125 C-35.77992188 40.8540625 -35.7825 39.5753125 -35.78515625 38.2578125 C-35.65234375 35.1328125 -35.65234375 35.1328125 -34.65234375 34.1328125 C-32.43379111 34.04497708 -30.21245879 34.02586641 -27.9921875 34.03515625 C-26.9954879 34.03727867 -26.9954879 34.03727867 -25.97865295 34.03944397 C-23.84900476 34.04505732 -21.71946036 34.05761196 -19.58984375 34.0703125 C-18.14909006 34.07532579 -16.70833472 34.07988899 -15.26757812 34.08398438 C-11.72913273 34.09503105 -8.19074836 34.11230458 -4.65234375 34.1328125 C-4.6272876 33.13838135 -4.60223145 32.1439502 -4.57641602 31.11938477 C-4.48249493 27.44232503 -4.38223756 23.765461 -4.2800293 20.08862305 C-4.23662229 18.4949195 -4.19495156 16.9011677 -4.1550293 15.30737305 C-4.09746568 13.02117342 -4.03373226 10.73521801 -3.96875 8.44921875 C-3.95203751 7.73254532 -3.93532501 7.01587189 -3.91810608 6.27748108 C-3.73422088 0.18698602 -3.73422088 0.18698602 0 0 Z " fill="#32cd32" transform="translate(296.65234375,348.8671875)"/>
<path d="M0 0 C1.95825873 -0.02694851 3.91662226 -0.04637218 5.875 -0.0625 C7.51082031 -0.07990234 7.51082031 -0.07990234 9.1796875 -0.09765625 C12 0 12 0 14 1 C14 11.89 14 22.78 14 34 C23.9 34 33.8 34 44 34 C44 38.95 44 43.9 44 49 C42.41429021 50.58570979 40.78534887 50.12980584 38.58984375 50.1328125 C37.68169922 50.13410156 36.77355469 50.13539063 35.83789062 50.13671875 C34.88076172 50.13285156 33.92363281 50.12898438 32.9375 50.125 C31.54241211 50.13080078 31.54241211 50.13080078 30.11914062 50.13671875 C29.20197266 50.13542969 28.28480469 50.13414062 27.33984375 50.1328125 C26.50831787 50.13168457 25.67679199 50.13055664 24.82006836 50.12939453 C21.17489551 49.96214134 17.61665232 49.48504613 14 49 C14.00523682 49.99443115 14.01047363 50.9888623 14.01586914 52.01342773 C14.03392041 55.69033921 14.04543246 59.36724675 14.05493164 63.04418945 C14.05997157 64.63794614 14.0668035 66.23169819 14.07543945 67.82543945 C14.08751999 70.11150253 14.09323155 72.39750467 14.09765625 74.68359375 C14.10281754 75.40026718 14.10797882 76.11694061 14.11329651 76.85533142 C14.11349263 78.57063672 14.06192007 80.28581266 14 82 C13 83 13 83 10.34765625 83.1328125 C9.26355469 83.13023437 8.17945313 83.12765625 7.0625 83.125 C5.44021484 83.12886719 5.44021484 83.12886719 3.78515625 83.1328125 C1 83 1 83 -1 82 C-1 71.44 -1 60.88 -1 50 C-11.15713092 50.03959822 -11.15713092 50.03959822 -21.31420898 50.09008789 C-22.57048096 50.09258545 -23.82675293 50.09508301 -25.12109375 50.09765625 C-27.06133423 50.10551147 -27.06133423 50.10551147 -29.04077148 50.11352539 C-32 50 -32 50 -33 49 C-33.09909302 46.66839945 -33.12970504 44.33370058 -33.125 42 C-33.12757813 40.72125 -33.13015625 39.4425 -33.1328125 38.125 C-33 35 -33 35 -32 34 C-29.78144736 33.91216458 -27.56011504 33.89305391 -25.33984375 33.90234375 C-24.34314415 33.90446617 -24.34314415 33.90446617 -23.3263092 33.90663147 C-21.19666101 33.91224482 -19.06711661 33.92479946 -16.9375 33.9375 C-15.49674631 33.94251329 -14.05599097 33.94707649 -12.61523438 33.95117188 C-9.07675042 33.96136924 -5.53849187 33.9809417 -2 34 C-1.67 26.41 -1.34 18.82 -1 11 C-0.67 11 -0.34 11 0 11 C0.02886984 14.97915159 0.04675406 18.95827653 0.0625 22.9375 C0.07087891 24.07380859 0.07925781 25.21011719 0.08789062 26.38085938 C0.09111328 27.46044922 0.09433594 28.54003906 0.09765625 29.65234375 C0.10289307 30.65257568 0.10812988 31.65280762 0.11352539 32.68334961 C0 35 0 35 -1 36 C-3.29151417 36.08790975 -5.58572524 36.10694038 -7.87890625 36.09765625 C-8.90889992 36.09553383 -8.90889992 36.09553383 -9.95970154 36.09336853 C-12.16067801 36.08775479 -14.36155409 36.07520007 -16.5625 36.0625 C-18.05143083 36.05748676 -19.54036324 36.05292355 -21.02929688 36.04882812 C-24.68623075 36.03778093 -28.34310558 36.02050713 -32 36 C-32 39.96 -32 43.92 -32 48 C-31.08186523 47.99476318 -30.16373047 47.98952637 -29.21777344 47.98413086 C-25.80354177 47.96706402 -22.38935559 47.95453768 -18.97509766 47.94506836 C-17.49885339 47.94004712 -16.02261408 47.93322884 -14.54638672 47.92456055 C-12.42153702 47.91239811 -10.29675322 47.90674954 -8.171875 47.90234375 C-6.8940918 47.89710693 -5.61630859 47.89187012 -4.29980469 47.88647461 C-1.6379064 47.97805368 0.48309582 48.19891486 3 49 C2.67 49.99 2.34 50.98 2 52 C1.91684248 54.06498892 1.89264122 56.1325789 1.90234375 58.19921875 C1.90556641 59.40771484 1.90878906 60.61621094 1.91210938 61.86132812 C1.92048828 63.12396484 1.92886719 64.38660156 1.9375 65.6875 C1.94201172 66.96173828 1.94652344 68.23597656 1.95117188 69.54882812 C1.96297127 72.69926564 1.97943403 75.84960949 2 79 C4.97 79 7.94 79 11 79 C11.33 68.77 11.66 58.54 12 48 C14.73678725 46.63160637 17.04264424 46.78365182 20.1015625 46.68359375 C21.91914063 46.62075195 21.91914063 46.62075195 23.7734375 46.55664062 C25.04445313 46.51732422 26.31546875 46.47800781 27.625 46.4375 C29.543125 46.37272461 29.543125 46.37272461 31.5 46.30664062 C34.66655348 46.20030114 37.83318753 46.09827167 41 46 C41.33 43.03 41.66 40.06 42 37 C32.43 37 22.86 37 13 37 C13 25.45 13 13.9 13 2 C8.38 2 3.76 2 -1 2 C-0.67 1.34 -0.34 0.68 0 0 Z " fill="#32cd32" transform="translate(294,349)"/>
<path d="M0 0 C1.07507813 0.00257813 2.15015625 0.00515625 3.2578125 0.0078125 C4.32773437 0.00523437 5.39765625 0.00265625 6.5 0 C9.3828125 0.1328125 9.3828125 0.1328125 12.3828125 1.1328125 C12.0528125 12.0228125 11.7228125 22.9128125 11.3828125 34.1328125 C21.6128125 34.1328125 31.8428125 34.1328125 42.3828125 34.1328125 C43.08612447 39.05599631 43.67086948 43.23584378 43.3828125 48.1328125 C41.3828125 50.1328125 41.3828125 50.1328125 38.49365234 50.35986328 C37.28918457 50.34938965 36.0847168 50.33891602 34.84375 50.328125 C33.67118652 50.32312988 32.49862305 50.31813477 31.29052734 50.31298828 C29.79473145 50.29478027 28.29893555 50.27657227 26.7578125 50.2578125 C22.0140625 50.2165625 17.2703125 50.1753125 12.3828125 50.1328125 C12.3828125 60.6928125 12.3828125 71.2528125 12.3828125 82.1328125 C12.0528125 82.1328125 11.7228125 82.1328125 11.3828125 82.1328125 C11.3828125 70.9128125 11.3828125 59.6928125 11.3828125 48.1328125 C21.2828125 48.1328125 31.1828125 48.1328125 41.3828125 48.1328125 C41.0528125 44.5028125 40.7228125 40.8728125 40.3828125 37.1328125 C39.50955322 37.13804932 38.63629395 37.14328613 37.73657227 37.14868164 C34.50691977 37.16569001 31.27729005 37.17824619 28.04760742 37.18774414 C26.64786022 37.1927833 25.2481183 37.19961466 23.84838867 37.20825195 C21.84035473 37.2203357 19.83228293 37.22551057 17.82421875 37.23046875 C16.61451416 37.23570557 15.40480957 37.24094238 14.15844727 37.24633789 C11.3828125 37.1328125 11.3828125 37.1328125 10.3828125 36.1328125 C10.22393158 33.84292469 10.13143177 31.54837809 10.06640625 29.25390625 C10.04562515 28.5672438 10.02484406 27.88058136 10.00343323 27.17311096 C9.93787107 24.97228315 9.87902235 22.77133275 9.8203125 20.5703125 C9.77713358 19.08136736 9.7335195 17.59243477 9.68945312 16.10351562 C9.5821832 12.44674697 9.48093478 8.78983932 9.3828125 5.1328125 C6.42616731 3.6544899 3.64051513 4.07248467 0.3828125 4.1328125 C0.36822998 5.08647705 0.35364746 6.0401416 0.33862305 7.02270508 C0.28063458 10.56214835 0.20340292 14.10095574 0.12036133 17.63989258 C0.08711432 19.17136309 0.05908157 20.70295606 0.03637695 22.23461914 C0.00282532 24.43689137 -0.0494866 26.63804162 -0.10546875 28.83984375 C-0.11505363 29.86655937 -0.11505363 29.86655937 -0.12483215 30.91401672 C-0.21355192 33.78453348 -0.32562661 35.71500342 -1.99291992 38.10424805 C-3.6171875 39.1328125 -3.6171875 39.1328125 -6.1171875 38.8828125 C-7.95994891 38.32998408 -9.79201628 37.74120291 -11.6171875 37.1328125 C-13.2419531 36.91998937 -14.87199098 36.74601218 -16.50390625 36.59765625 C-17.44169922 36.51064453 -18.37949219 36.42363281 -19.34570312 36.33398438 C-20.32216797 36.24697266 -21.29863281 36.15996094 -22.3046875 36.0703125 C-23.29275391 35.97943359 -24.28082031 35.88855469 -25.29882812 35.79492188 C-27.73799133 35.57103733 -30.17755366 35.35150901 -32.6171875 35.1328125 C-32.2871875 38.7628125 -31.9571875 42.3928125 -31.6171875 46.1328125 C-22.0471875 46.7928125 -12.4771875 47.4528125 -2.6171875 48.1328125 C-2.6171875 59.3528125 -2.6171875 70.5728125 -2.6171875 82.1328125 C-2.9471875 82.1328125 -3.2771875 82.1328125 -3.6171875 82.1328125 C-3.9471875 71.5728125 -4.2771875 61.0128125 -4.6171875 50.1328125 C-11.91629812 50.1721994 -11.91629812 50.1721994 -19.21533203 50.22290039 C-24.12562844 50.23624593 -28.79388865 50.19260308 -33.6171875 49.1328125 C-33.81109479 46.82084095 -33.99715117 44.5082096 -34.1796875 42.1953125 C-34.33630859 40.26365234 -34.33630859 40.26365234 -34.49609375 38.29296875 C-34.53605469 37.25011719 -34.57601563 36.20726562 -34.6171875 35.1328125 C-33.6171875 34.1328125 -33.6171875 34.1328125 -30.84155273 34.01928711 C-29.63184814 34.02452393 -28.42214355 34.02976074 -27.17578125 34.03515625 C-25.87060547 34.03837891 -24.56542969 34.04160156 -23.22070312 34.04492188 C-21.8320306 34.05327849 -20.44335873 34.06174345 -19.0546875 34.0703125 C-17.66211094 34.07532584 -16.26953269 34.07988903 -14.87695312 34.08398438 C-11.4569888 34.09581816 -8.03710906 34.1123037 -4.6171875 34.1328125 C-4.59213135 33.13838135 -4.5670752 32.1439502 -4.54125977 31.11938477 C-4.44733868 27.44232503 -4.34708131 23.765461 -4.24487305 20.08862305 C-4.20146604 18.4949195 -4.15979531 16.9011677 -4.11987305 15.30737305 C-4.06230943 13.02117342 -3.99857601 10.73521801 -3.93359375 8.44921875 C-3.91688126 7.73254532 -3.90016876 7.01587189 -3.88294983 6.27748108 C-3.69908663 0.18771484 -3.69908663 0.18771484 0 0 Z " fill="#32cd32" transform="translate(391.6171875,348.8671875)"/>
<path d="M0 0 C26.07 0 52.14 0 79 0 C79 26.07 79 52.14 79 79 C91.87 79 104.74 79 118 79 C118 52.93 118 26.86 118 0 C131.2 0 144.4 0 158 0 C158 0.33 158 0.66 158 1 C145.46 1 132.92 1 120 1 C120 27.4 120 53.8 120 81 C105.81 81 91.62 81 77 81 C77 54.6 77 28.2 77 1 C51.59 1 26.18 1 0 1 C0 0.67 0 0.34 0 0 Z " fill="#32cd32" transform="translate(314,242)"/>
<path d="M0 0 C1.65 0 3.3 0 5 0 C5.33 31.35 5.66 62.7 6 95 C9.96 94.01 9.96 94.01 14 93 C13.62875 93.5775 13.2575 94.155 12.875 94.75 C11.77597216 96.94743653 11.77597216 96.94743653 12.5 99.125 C13.95499502 101.2950572 13.95499502 101.2950572 17.0625 102 C18.031875 102.33 19.00125 102.66 20 103 C20.875 105.125 20.875 105.125 21 107 C19.948125 106.5359375 19.948125 106.5359375 18.875 106.0625 C15.66479148 104.87611859 13.44617328 104.06627256 10 104 C7.67739925 105.12676356 5.5246468 106.4365068 3.32421875 107.78515625 C-0.13313358 109.59227654 -3.13375404 109.78911386 -7 110 C-6.67 109.01 -6.34 108.02 -6 107 C-4.68 107 -3.36 107 -2 107 C-2 104.69 -2 102.38 -2 100 C-2.62648437 100.16757812 -3.25296875 100.33515625 -3.8984375 100.5078125 C-5.12433594 100.81332031 -5.12433594 100.81332031 -6.375 101.125 C-7.59316406 101.43824219 -7.59316406 101.43824219 -8.8359375 101.7578125 C-9.90714844 101.87769531 -9.90714844 101.87769531 -11 102 C-11.66 101.34 -12.32 100.68 -13 100 C-10.54379149 98.82866942 -8.08525083 97.66278278 -5.625 96.5 C-4.92632812 96.16613281 -4.22765625 95.83226562 -3.5078125 95.48828125 C1.7734375 93 1.7734375 93 4 93 C3.75443359 91.81772827 3.75443359 91.81772827 3.50390625 90.61157227 C2.87631583 86.11353685 2.8955133 81.74933139 2.9375 77.21484375 C2.94625992 75.23584043 2.95488041 73.25683649 2.96337891 71.27783203 C2.96960266 70.24257385 2.97582642 69.20731567 2.98223877 68.14068604 C3.07115895 52.10419054 3.06990985 36.06892899 2.68261719 20.03616333 C2.64429903 18.43262552 2.60945113 16.82900092 2.578125 15.22531128 C2.53364301 13.01699481 2.47615813 10.8094448 2.4140625 8.6015625 C2.3826416 7.36744629 2.3512207 6.13333008 2.31884766 4.86181641 C2.28715683 1.87084946 2.28715683 1.87084946 0 0 Z " fill="#32cd32" transform="translate(199,177)"/>
<path d="M0 0 C0.76957031 0.00257813 1.53914063 0.00515625 2.33203125 0.0078125 C3.08871094 0.00523437 3.84539062 0.00265625 4.625 0 C7.48586616 0.15080535 10.31867234 0.66183601 13.14453125 1.1328125 C13.14453125 12.0228125 13.14453125 22.9128125 13.14453125 34.1328125 C12.81453125 34.1328125 12.48453125 34.1328125 12.14453125 34.1328125 C12.14453125 23.5728125 12.14453125 13.0128125 12.14453125 2.1328125 C7.52453125 2.1328125 2.90453125 2.1328125 -1.85546875 2.1328125 C-1.85546875 13.0228125 -1.85546875 23.9128125 -1.85546875 35.1328125 C-11.75546875 35.1328125 -21.65546875 35.1328125 -31.85546875 35.1328125 C-31.85546875 39.4228125 -31.85546875 43.7128125 -31.85546875 48.1328125 C-21.29546875 48.1328125 -10.73546875 48.1328125 0.14453125 48.1328125 C0.14453125 59.0228125 0.14453125 69.9128125 0.14453125 81.1328125 C3.77453125 80.8028125 7.40453125 80.4728125 11.14453125 80.1328125 C11.12132812 78.66328125 11.098125 77.19375 11.07421875 75.6796875 C11.05545869 73.74740091 11.03725874 71.81510883 11.01953125 69.8828125 C11.00277344 68.91472656 10.98601562 67.94664062 10.96875 66.94921875 C10.95908203 65.54736328 10.95908203 65.54736328 10.94921875 64.1171875 C10.9335083 62.82893066 10.9335083 62.82893066 10.91748047 61.51464844 C11.16159802 58.95377654 11.85462613 57.33770221 13.14453125 55.1328125 C13.17339662 59.44529859 13.1912838 63.75776012 13.20703125 68.0703125 C13.21541016 69.30201172 13.22378906 70.53371094 13.23242188 71.80273438 C13.23564453 72.97255859 13.23886719 74.14238281 13.2421875 75.34765625 C13.24742432 76.43167725 13.25266113 77.51569824 13.25805664 78.63256836 C13.14453125 81.1328125 13.14453125 81.1328125 12.14453125 82.1328125 C10.19267852 82.39500167 8.23201452 82.59309568 6.26953125 82.7578125 C5.19960937 82.85320312 4.1296875 82.94859375 3.02734375 83.046875 C0.14453125 83.1328125 0.14453125 83.1328125 -2.85546875 82.1328125 C-2.85546875 71.2428125 -2.85546875 60.3528125 -2.85546875 49.1328125 C-5.82546875 49.6278125 -5.82546875 49.6278125 -8.85546875 50.1328125 C-10.71465471 50.21945354 -12.57629771 50.26335741 -14.4375 50.265625 C-15.95827148 50.26755859 -15.95827148 50.26755859 -17.50976562 50.26953125 C-18.55197266 50.26566406 -19.59417969 50.26179688 -20.66796875 50.2578125 C-22.2602832 50.26361328 -22.2602832 50.26361328 -23.88476562 50.26953125 C-25.39586914 50.26759766 -25.39586914 50.26759766 -26.9375 50.265625 C-27.85764893 50.26449707 -28.77779785 50.26336914 -29.72583008 50.26220703 C-31.85546875 50.1328125 -31.85546875 50.1328125 -32.85546875 49.1328125 C-32.85546875 44.1828125 -32.85546875 39.2328125 -32.85546875 34.1328125 C-22.95546875 34.1328125 -13.05546875 34.1328125 -2.85546875 34.1328125 C-2.86707031 31.76222656 -2.87867188 29.39164062 -2.890625 26.94921875 C-2.89841571 24.66235488 -2.90449239 22.37549246 -2.91040039 20.08862305 C-2.91544032 18.49486636 -2.92227225 16.90111431 -2.9309082 15.30737305 C-2.94298874 13.02130997 -2.9487003 10.73530783 -2.953125 8.44921875 C-2.95828629 7.73254532 -2.96344757 7.01587189 -2.96876526 6.27748108 C-2.96896138 4.56217578 -2.91738882 2.84699984 -2.85546875 1.1328125 C-1.85546875 0.1328125 -1.85546875 0.1328125 0 0 Z " fill="#32cd32" transform="translate(198.85546875,348.8671875)"/>
<path d="M0 0 C3.875 0.875 3.875 0.875 5 2 C5.09530981 5.04402422 5.12551639 8.06531708 5.11352539 11.10961914 C5.11367142 12.06561508 5.11381744 13.02161102 5.1139679 14.00657654 C5.11326835 17.18279245 5.10547403 20.35895052 5.09765625 23.53515625 C5.09579222 25.73091093 5.09436825 27.92666602 5.09336853 30.12242126 C5.08954219 35.91420633 5.07971091 41.7059665 5.06866455 47.4977417 C5.05845293 53.40278791 5.05387145 59.30783813 5.04882812 65.21289062 C5.03808875 76.80860472 5.02101093 88.40430029 5 100 C5.66 100.33 6.32 100.66 7 101 C5.515 101.495 5.515 101.495 4 102 C2.16481183 100.44662321 1.10645701 99.54050296 0.63364983 97.13996887 C0.63771402 96.4386937 0.64177822 95.73741852 0.64596558 95.01489258 C0.64194733 93.80357162 0.64194733 93.80357162 0.6378479 92.56777954 C0.65638321 91.24452164 0.65638321 91.24452164 0.67529297 89.89453125 C0.67646118 88.96256927 0.67762939 88.0306073 0.67883301 87.07040405 C0.68603137 83.98421145 0.71425424 80.89856866 0.7421875 77.8125 C0.75032151 75.67163588 0.75698556 73.53076571 0.76223755 71.38989258 C0.77937623 65.74878461 0.81364022 60.10791574 0.85229492 54.46691895 C0.91143163 45.43712527 0.94531816 36.40720988 0.97806168 27.37728882 C0.99205234 24.21802123 1.01364209 21.05887381 1.03634644 17.8996582 C1.04636827 15.96826257 1.05623395 14.03686611 1.06591797 12.10546875 C1.07422638 11.22329681 1.08253479 10.34112488 1.09109497 9.43222046 C1.10355697 6.03327266 1.08267903 3.24803708 0 0 Z " fill="#32cd32" transform="translate(232,177)"/>
<path d="M0 0 C0.99 0.495 0.99 0.495 2 1 C2.95983734 27.18111723 3.00822217 53.28672825 2.60510254 79.47979736 C2.53257568 84.30221038 2.46888829 89.12474095 2.40429688 93.94726562 C2.27782907 103.29830619 2.14214888 112.64918551 2 122 C1.34 122 0.68 122 0 122 C0 81.74 0 41.48 0 0 Z " fill="#32cd32" transform="translate(250,161)"/>
<path d="M0 0 C0.66 0 1.32 0 2 0 C2 10.56 2 21.12 2 32 C12.23 32 22.46 32 33 32 C33.70331197 36.92318381 34.28805698 41.10303128 34 46 C32 48 32 48 29.11083984 48.22705078 C27.90637207 48.21657715 26.7019043 48.20610352 25.4609375 48.1953125 C24.28837402 48.19031738 23.11581055 48.18532227 21.90771484 48.18017578 C20.41191895 48.16196777 18.91612305 48.14375977 17.375 48.125 C12.63125 48.08375 7.8875 48.0425 3 48 C3 58.56 3 69.12 3 80 C2.67 80 2.34 80 2 80 C2 68.78 2 57.56 2 46 C11.9 46 21.8 46 32 46 C31.67 42.37 31.34 38.74 31 35 C30.12674072 35.00523682 29.25348145 35.01047363 28.35375977 35.01586914 C25.12410727 35.03287751 21.89447755 35.04543369 18.66479492 35.05493164 C17.26504772 35.0599708 15.8653058 35.06680216 14.46557617 35.07543945 C12.45754223 35.0875232 10.44947043 35.09269807 8.44140625 35.09765625 C7.23170166 35.10289307 6.02199707 35.10812988 4.77563477 35.11352539 C2 35 2 35 1 34 C0.84011509 31.48119483 0.74065775 28.98657734 0.68359375 26.46484375 C0.66281265 25.71159317 0.64203156 24.95834259 0.62062073 24.18226624 C0.55504575 21.7674401 0.49620379 19.35250202 0.4375 16.9375 C0.3943223 15.30402471 0.35070827 13.6705609 0.30664062 12.03710938 C0.19935638 8.02485536 0.09811179 4.01248836 0 0 Z " fill="#32cd32" transform="translate(401,351)"/>
<path d="M0 0 C0.66 0 1.32 0 2 0 C2 35.64 2 71.28 2 108 C2.66 108.33 3.32 108.66 4 109 C2.68 108.67 1.36 108.34 0 108 C-0.83029643 105.10877404 -1.11494046 102.57452275 -1.08229065 99.57073975 C-1.07525116 98.69016907 -1.06821167 97.80959839 -1.06095886 96.90234375 C-1.04801285 95.94424805 -1.03506683 94.98615234 -1.02172852 93.99902344 C-1.01212097 92.98406799 -1.00251343 91.96911255 -0.99261475 90.92340088 C-0.95963412 87.56865481 -0.91929801 84.21403935 -0.87890625 80.859375 C-0.85460423 78.53339091 -0.83076071 76.207402 -0.80735779 73.88140869 C-0.74452506 67.75918067 -0.67545599 61.63703818 -0.60510254 55.51489258 C-0.53441185 49.26778052 -0.46959927 43.0206078 -0.40429688 36.7734375 C-0.27529495 24.51555834 -0.13970685 12.2577615 0 0 Z " fill="#32cd32" transform="translate(182,171)"/>
<path d="M0 0 C1.65 0 3.3 0 5 0 C5 30.03 5 60.06 5 91 C3.19275315 87.3855063 2.75100045 86.44008611 2.78881836 82.72680664 C2.79214676 81.88427841 2.79547516 81.04175018 2.79890442 80.1736908 C2.8124144 79.2617244 2.82592438 78.349758 2.83984375 77.41015625 C2.8454985 76.44948746 2.85115326 75.48881866 2.85697937 74.4990387 C2.86955508 72.42985235 2.88631058 70.36068806 2.90679932 68.29156494 C2.95844207 62.85983587 2.97308294 57.42802865 2.98828125 51.99609375 C2.99356842 50.35543945 2.99356842 50.35543945 2.9989624 48.68164062 C3.02039512 39.12937782 2.91913798 29.58351473 2.68362427 20.03414917 C2.64462472 18.43147299 2.60935056 16.82870171 2.57785034 15.2258606 C2.53339487 13.01736507 2.4760098 10.80962763 2.4140625 8.6015625 C2.3826416 7.36744629 2.3512207 6.13333008 2.31884766 4.86181641 C2.28715683 1.87084946 2.28715683 1.87084946 0 0 Z " fill="#32cd32" transform="translate(199,177)"/>
<path d="M0 0 C0.495 1.485 0.495 1.485 1 3 C-8.9 3.33 -18.8 3.66 -29 4 C-29 14.56 -29 25.12 -29 36 C-33.29 36 -37.58 36 -42 36 C-42.33 25.11 -42.66 14.22 -43 3 C-42.34 3 -41.68 3 -41 3 C-41 13.56 -41 24.12 -41 35 C-36.545 34.505 -36.545 34.505 -32 34 C-31.98541748 33.10168457 -31.97083496 32.20336914 -31.95581055 31.27783203 C-31.89480303 27.9489341 -31.82066372 24.62087117 -31.73754883 21.29248047 C-31.70426822 19.85118658 -31.67624596 18.40976137 -31.65356445 16.96826172 C-31.6200738 14.89754203 -31.567767 12.82802907 -31.51171875 10.7578125 C-31.48553467 9.5114502 -31.45935059 8.26508789 -31.43237305 6.98095703 C-31.21834839 5.5053833 -31.21834839 5.5053833 -31 4 C-27.79993244 1.86662163 -26.80486212 1.7279094 -23.10546875 1.62109375 C-22.14962891 1.58693359 -21.19378906 1.55277344 -20.20898438 1.51757812 C-19.21189453 1.49115234 -18.21480469 1.46472656 -17.1875 1.4375 C-8.54612127 1.2156927 -8.54612127 1.2156927 0 0 Z " fill="#32cd32" transform="translate(144,394)"/>
<path d="M0 0 C4.62 0 9.24 0 14 0 C13.67 3.63 13.34 7.26 13 11 C12.67 11 12.34 11 12 11 C12 7.7 12 4.4 12 1 C8.7 1 5.4 1 2 1 C2.00523682 1.99443115 2.01047363 2.9888623 2.01586914 4.01342773 C2.03392041 7.69033921 2.04543246 11.36724675 2.05493164 15.04418945 C2.05997157 16.63794614 2.0668035 18.23169819 2.07543945 19.82543945 C2.08751999 22.11150253 2.09323155 24.39750467 2.09765625 26.68359375 C2.10281754 27.40026718 2.10797882 28.11694061 2.11329651 28.85533142 C2.11349263 30.57063672 2.06192007 32.28581266 2 34 C0.08780415 35.91219585 -3.33645504 35.24435298 -5.87890625 35.31640625 C-6.5655687 35.33718735 -7.25223114 35.35796844 -7.95970154 35.37937927 C-10.16052935 35.44494143 -12.36147975 35.50379015 -14.5625 35.5625 C-16.05144514 35.60567892 -17.54037773 35.649293 -19.02929688 35.69335938 C-22.68606553 35.8006293 -26.34297318 35.90187772 -30 36 C-30 35.01 -30 34.02 -30 33 C-20.1 33 -10.2 33 0 33 C0 22.11 0 11.22 0 0 Z " fill="#32cd32" transform="translate(197,351)"/>
<path d="M0 0 C0.8765625 -0.01224609 1.753125 -0.02449219 2.65625 -0.03710938 C3.49929688 -0.03904297 4.34234375 -0.04097656 5.2109375 -0.04296875 C5.9848584 -0.04707764 6.7587793 -0.05118652 7.55615234 -0.05541992 C9.625 0.1875 9.625 0.1875 12.625 2.1875 C5.52772572 2.29558032 -1.33594956 2.12604006 -8.375 1.1875 C-8.045 4.8175 -7.715 8.4475 -7.375 12.1875 C2.195 12.8475 11.765 13.5075 21.625 14.1875 C21.625 25.4075 21.625 36.6275 21.625 48.1875 C21.295 48.1875 20.965 48.1875 20.625 48.1875 C20.295 37.6275 19.965 27.0675 19.625 16.1875 C12.32588938 16.2268869 12.32588938 16.2268869 5.02685547 16.27758789 C0.11655906 16.29093343 -4.55170115 16.24729058 -9.375 15.1875 C-9.56890729 12.87552845 -9.75496367 10.5628971 -9.9375 8.25 C-10.09412109 6.31833984 -10.09412109 6.31833984 -10.25390625 4.34765625 C-10.29386719 3.30480469 -10.33382813 2.26195312 -10.375 1.1875 C-8.14264991 -1.04485009 -2.99806334 0.00218518 0 0 Z " fill="#32cd32" transform="translate(367.375,382.8125)"/>
<path d="M0 0 C0.99 0 1.98 0 3 0 C3.33 2.31 3.66 4.62 4 7 C3.34 7 2.68 7 2 7 C2 27.46 2 47.92 2 69 C1.67 69 1.34 69 1 69 C0.27677339 64.45934228 -0.12292461 60.110134 -0.11352539 55.51391602 C-0.11344986 54.27315811 -0.11337433 53.03240021 -0.11329651 51.75404358 C-0.10819154 50.42066405 -0.10297557 49.08728494 -0.09765625 47.75390625 C-0.09578847 46.37385611 -0.09436627 44.99380531 -0.09336853 43.61375427 C-0.08957168 40.00198498 -0.07976594 36.39025665 -0.06866455 32.77850342 C-0.05838918 29.08476312 -0.05385785 25.39101613 -0.04882812 21.69726562 C-0.03814082 14.46482519 -0.02109888 7.23241836 0 0 Z " fill="#32cd32" transform="translate(261,221)"/>
<path d="M0 0 C0.66 0.33 1.32 0.66 2 1 C2 12.22 2 23.44 2 35 C-12.4375 35.4375 -12.4375 35.4375 -16.99780273 35.56811523 C-18.17286377 35.60622314 -19.3479248 35.64433105 -20.55859375 35.68359375 C-22.37315063 35.73858032 -22.37315063 35.73858032 -24.22436523 35.79467773 C-26.90705456 35.68938266 -26.90705456 35.68938266 -28 37 C-28 39.31 -28 41.62 -28 44 C-14.14 44.495 -14.14 44.495 0 45 C0 45.33 0 45.66 0 46 C-10.23 46 -20.46 46 -31 46 C-31 42.04 -31 38.08 -31 34 C-15.655 33.505 -15.655 33.505 0 33 C0 22.11 0 11.22 0 0 Z " fill="#32cd32" transform="translate(101,351)"/>
<path d="M0 0 C0.66 0 1.32 0 2 0 C2 12.21 2 24.42 2 37 C-1.03134384 38.01044795 -2.74395943 38.05032949 -5.88671875 37.87890625 C-6.82451172 37.83056641 -7.76230469 37.78222656 -8.72851562 37.73242188 C-9.70498047 37.67634766 -10.68144531 37.62027344 -11.6875 37.5625 C-12.67556641 37.51029297 -13.66363281 37.45808594 -14.68164062 37.40429688 C-17.12141676 37.27464694 -19.56078105 37.13968258 -22 37 C-22 34.69 -22 32.38 -22 30 C-21.34 29.67 -20.68 29.34 -20 29 C-20 28.01 -20 27.02 -20 26 C-18.68 25.67 -17.36 25.34 -16 25 C-16.57584432 27.38564077 -17.22227595 29.66682784 -18 32 C-18.66 32 -19.32 32 -20 32 C-19.67 32.66 -19.34 33.32 -19 34 C-12.4 34 -5.8 34 1 34 C0.67 22.78 0.34 11.56 0 0 Z " fill="#32cd32" transform="translate(166,196)"/>
<path d="M0 0 C0.33 0 0.66 0 1 0 C1 10.23 1 20.46 1 31 C10.9 31 20.8 31 31 31 C32.16968953 33.33937907 32.13364221 34.77369368 32.125 37.375 C32.12886719 38.53128906 32.12886719 38.53128906 32.1328125 39.7109375 C32.00389788 41.9328189 31.61383717 43.86618508 31 46 C25.90993378 46.83726938 21.02911738 47.1542294 15.875 47.125 C15.18535156 47.12886719 14.49570313 47.13273437 13.78515625 47.13671875 C10.06410302 47.12960393 6.61726778 46.88672323 3 46 C3 45.67 3 45.34 3 45 C11.91 45 20.82 45 30 45 C29.67 43.68 29.34 42.36 29 41 C29.33 38.03 29.66 35.06 30 32 C20.1 32 10.2 32 0 32 C0 21.44 0 10.88 0 0 Z " fill="#32cd32" transform="translate(115,352)"/>
<path d="M0 0 C2.16125562 0.0703348 4.3227322 0.13419399 6.484375 0.19140625 C11.74445867 0.34460607 16.99618554 0.57783768 22.25 0.875 C22.25 1.205 22.25 1.535 22.25 1.875 C1.46 2.37 1.46 2.37 -19.75 2.875 C-19.75 4.195 -19.75 5.515 -19.75 6.875 C-20.41 6.875 -21.07 6.875 -21.75 6.875 C-21.75 7.535 -21.75 8.195 -21.75 8.875 C-22.74 8.875 -23.73 8.875 -24.75 8.875 C-25.08 9.535 -25.41 10.195 -25.75 10.875 C-27.52734375 12.19921875 -27.52734375 12.19921875 -29.6875 13.5625 C-30.39777344 14.02011719 -31.10804688 14.47773437 -31.83984375 14.94921875 C-32.78537109 15.40748047 -32.78537109 15.40748047 -33.75 15.875 C-34.41 15.545 -35.07 15.215 -35.75 14.875 C-26.57359908 -0.66680942 -17.08652511 -0.96987467 0 0 Z " fill="#32cd32" transform="translate(410.75,77.125)"/>
<path d="M0 0 C9.9 0 19.8 0 30 0 C30 4.29 30 8.58 30 13 C20.1 13 10.2 13 0 13 C0 12.67 0 12.34 0 12 C3.91624701 11.80293645 7.83300366 11.61900841 11.75 11.4375 C12.86117187 11.38142578 13.97234375 11.32535156 15.1171875 11.26757812 C16.18710938 11.21923828 17.25703125 11.17089844 18.359375 11.12109375 C19.34389648 11.0739624 20.32841797 11.02683105 21.34277344 10.97827148 C24 11 24 11 28 12 C28 8.7 28 5.4 28 2 C18.76 2 9.52 2 0 2 C0 1.34 0 0.68 0 0 Z " fill="#32cd32" transform="translate(211,384)"/>
<path d="M0 0 C-0.33 0.66 -0.66 1.32 -1 2 C-2.28688721 2.01458252 -3.57377441 2.02916504 -4.8996582 2.04418945 C-9.6689855 2.10211148 -14.43783762 2.17934463 -19.20678711 2.26245117 C-21.2718129 2.29572924 -23.33693027 2.32375214 -25.40209961 2.34643555 C-28.36872432 2.37992855 -31.33450748 2.43224145 -34.30078125 2.48828125 C-35.68841423 2.49786613 -35.68841423 2.49786613 -37.1040802 2.50764465 C-38.39507881 2.53733589 -38.39507881 2.53733589 -39.7121582 2.56762695 C-40.46938675 2.57873001 -41.2266153 2.58983307 -42.00679016 2.60127258 C-44.49017352 3.09805572 -45.40085961 4.08808636 -47 6 C-47.04254356 4.00045254 -47.04080783 1.99958364 -47 0 C-44.83245466 -2.16754534 -39.87080432 -1.30978962 -36.85546875 -1.38671875 C-35.93413651 -1.41224319 -35.01280426 -1.43776764 -34.06355286 -1.46406555 C-32.1090871 -1.51618119 -30.15454775 -1.56559492 -28.19995117 -1.61254883 C-25.21035362 -1.68693139 -22.22153788 -1.77763456 -19.23242188 -1.86914062 C-17.33596299 -1.91767326 -15.43947886 -1.96523105 -13.54296875 -2.01171875 C-12.20059395 -2.05530769 -12.20059395 -2.05530769 -10.83110046 -2.09977722 C-9.9937587 -2.11672134 -9.15641693 -2.13366547 -8.29370117 -2.15112305 C-7.19236092 -2.17990791 -7.19236092 -2.17990791 -6.06877136 -2.20927429 C-3.67509931 -1.96713346 -2.07463352 -1.18675582 0 0 Z " fill="#32cd32" transform="translate(168,263)"/>
<path d="M0 0 C0.33 0 0.66 0 1 0 C2.11487158 7.22540227 2.45478676 14.38997273 2.75 21.6875 C2.81832031 23.00556641 2.88664063 24.32363281 2.95703125 25.68164062 C3.03244141 27.5775293 3.03244141 27.5775293 3.109375 29.51171875 C3.16061523 30.66115967 3.21185547 31.81060059 3.26464844 32.99487305 C2.96922437 36.34946241 2.42574617 37.69218177 0 40 C-3.1875 40.25 -3.1875 40.25 -6 40 C-6 39.01 -6 38.02 -6 37 C-4.02 37 -2.04 37 0 37 C0 24.79 0 12.58 0 0 Z " fill="#32cd32" transform="translate(227,185)"/>
<path d="M0 0 C1.98 0.99 1.98 0.99 4 2 C5.794375 2.2165625 5.794375 2.2165625 7.625 2.4375 C8.73875 2.623125 9.8525 2.80875 11 3 C11.99 4.485 11.99 4.485 13 6 C9.60694964 5.46019653 6.33796756 4.83449189 3 4 C2.67 15.88 2.34 27.76 2 40 C5.96 40.66 9.92 41.32 14 42 C10 44 10 44 1 43 C0.67 28.81 0.34 14.62 0 0 Z " fill="#32cd32" transform="translate(211,179)"/>
<path d="M0 0 C1.59142848 3.18285696 1.00008284 6.5870442 0.87890625 10.0703125 C0.85529526 10.86654022 0.83168427 11.66276794 0.80735779 12.48312378 C0.73067789 15.03059529 0.64667239 17.5777661 0.5625 20.125 C0.50928363 21.85024562 0.4565432 23.57550598 0.40429688 25.30078125 C0.27505693 29.53404522 0.13924581 33.76705382 0 38 C-3.34179279 39.11393093 -4.64991123 38.75376997 -8 38 C-8.99 38 -9.98 38 -11 38 C-12.68236471 37.37400383 -14.3523962 36.71247732 -16 36 C-15.34 35.01 -14.68 34.02 -14 33 C-9.87689437 33 -5.94921894 34.81523432 -2 36 C-1.67 24.78 -1.34 13.56 -1 2 C-1.66 1.67 -2.32 1.34 -3 1 C-2.01 0.67 -1.02 0.34 0 0 Z " fill="#32cd32" transform="translate(227,232)"/>
<path d="M0 0 C1.32 0 2.64 0 4 0 C3.34 1.65 2.68 3.3 2 5 C1.34 5 0.68 5 0 5 C0 5.66 0 6.32 0 7 C-0.66 7 -1.32 7 -2 7 C-2.23847656 7.54140625 -2.47695313 8.0828125 -2.72265625 8.640625 C-4.33613866 11.62087997 -6.31203401 14.11149049 -8.4375 16.75 C-9.21996094 17.73484375 -10.00242187 18.7196875 -10.80859375 19.734375 C-11.53175781 20.48203125 -12.25492187 21.2296875 -13 22 C-13.99 22 -14.98 22 -16 22 C-16.33 21.34 -16.66 20.68 -17 20 C-15.68 20 -14.36 20 -13 20 C-13.33 19.01 -13.66 18.02 -14 17 C-13.01 17 -12.02 17 -11 17 C-10.938125 15.906875 -10.87625 14.81375 -10.8125 13.6875 C-10 10 -10 10 -7.5625 8.0625 C-5 7 -5 7 -3 7 C-3 5.35 -3 3.7 -3 2 C-2.01 2 -1.02 2 0 2 C0 1.34 0 0.68 0 0 Z " fill="#32cd32" transform="translate(379,137)"/>
<path d="M0 0 C0 4.08798969 -1.13219014 7.37425145 -3 11 C-5.625 13.375 -5.625 13.375 -8 15 C-8.33 15.66 -8.66 16.32 -9 17 C-9.66 17 -10.32 17 -11 17 C-11 17.99 -11 18.98 -11 20 C-11.99 19.67 -12.98 19.34 -14 19 C-14.33 20.32 -14.66 21.64 -15 23 C-16.32 22.67 -17.64 22.34 -19 22 C-18.67 21.34 -18.34 20.68 -18 20 C-17.34 20 -16.68 20 -16 20 C-15.77054687 19.45214844 -15.54109375 18.90429688 -15.3046875 18.33984375 C-13.62395795 15.32560122 -11.48046682 13.08222044 -9.125 10.5625 C-5.93425561 7.13840266 -2.88007793 3.69051846 0 0 Z " fill="#32cd32" transform="translate(344,127)"/>
<path d="M0 0 C1.21816406 0.03480469 1.21816406 0.03480469 2.4609375 0.0703125 C3.68683594 0.09738281 3.68683594 0.09738281 4.9375 0.125 C5.87722656 0.15980469 5.87722656 0.15980469 6.8359375 0.1953125 C4.29323302 2.73801698 1.88227538 3.48350821 -1.4765625 4.7578125 C-2.60707031 5.19222656 -3.73757812 5.62664062 -4.90234375 6.07421875 C-7.67199716 7.02618346 -10.28214545 7.71409183 -13.1640625 8.1953125 C-13.1640625 8.8553125 -13.1640625 9.5153125 -13.1640625 10.1953125 C-12.5040625 10.5253125 -11.8440625 10.8553125 -11.1640625 11.1953125 C-13.1440625 11.1953125 -15.1240625 11.1953125 -17.1640625 11.1953125 C-17.4940625 10.2053125 -17.8240625 9.2153125 -18.1640625 8.1953125 C-17.1640625 6.1953125 -17.1640625 6.1953125 -14.29296875 5.1953125 C-13.11605469 4.8653125 -11.93914062 4.5353125 -10.7265625 4.1953125 C-7.01717075 3.15293677 -3.40980059 0.30774374 0 0 Z " fill="#32cd32" transform="translate(237.1640625,163.8046875)"/>
<path d="M0 0 C1.71370351 2.96528472 2.08346949 3.6205932 1.3125 7.125 C0 10 0 10 -3 12 C-3 12.66 -3 13.32 -3 14 C-4.65 14 -6.3 14 -8 14 C-7.938125 14.928125 -7.87625 15.85625 -7.8125 16.8125 C-8 20 -8 20 -9.3125 21.875 C-11 23 -11 23 -14 23 C-12.33333333 19.66666667 -10.66666667 16.33333333 -9 13 C-8.34 13 -7.68 13 -7 13 C-6.89816406 12.43796875 -6.79632813 11.8759375 -6.69140625 11.296875 C-5.86351889 8.54660512 -4.56801382 6.60904126 -2.9375 4.25 C-2.38964844 3.45078125 -1.84179688 2.6515625 -1.27734375 1.828125 C-0.85582031 1.22484375 -0.43429688 0.6215625 0 0 Z " fill="#32cd32" transform="translate(152,128)"/>
<path d="M0 0 C20.46 0 40.92 0 62 0 C61.67 0.66 61.34 1.32 61 2 C41.53 2 22.06 2 2 2 C1.67 3.32 1.34 4.64 1 6 C0.01 5.67 -0.98 5.34 -2 5 C-1.34 3.35 -0.68 1.7 0 0 Z " fill="#32cd32" transform="translate(213,31)"/>
<path d="M0 0 C1.07421875 1.83984375 1.07421875 1.83984375 2 4 C0.79070248 6.60953676 -0.44403611 8.48851322 -2.5625 10.4375 C-4.61843403 12.6722109 -5.11910109 15.12239689 -6 18 C-6.63815344 19.34721283 -7.29325371 20.68747118 -8 22 C-9.32 21.34 -10.64 20.68 -12 20 C-11.505 18.515 -11.505 18.515 -11 17 C-10.34 17 -9.68 17 -9 17 C-8.91878906 16.47921875 -8.83757812 15.9584375 -8.75390625 15.421875 C-7.69926617 12.03391205 -5.82792137 9.22112857 -3.9375 6.25 C-3.56044922 5.64800781 -3.18339844 5.04601563 -2.79492188 4.42578125 C-1.86806837 2.94750857 -0.93467611 1.47333911 0 0 Z " fill="#32cd32" transform="translate(201,50)"/>
<path d="M0 0 C0.33 0 0.66 0 1 0 C1.84223216 4.3733353 2.67221195 8.74890966 3.5 13.125 C3.73847656 14.3625 3.97695313 15.6 4.22265625 16.875 C4.44824219 18.07382812 4.67382812 19.27265625 4.90625 20.5078125 C5.11572266 21.60754395 5.32519531 22.70727539 5.54101562 23.84033203 C5.99180676 26.94359741 6.08249503 29.86931374 6 33 C3.21784407 30.94362388 2.98311639 29.90207504 2.375 26.375 C2.25125 25.26125 2.1275 24.1475 2 23 C1.67 22.67 1.34 22.34 1 22 C0.92820036 20.48071962 0.91607993 18.95832518 0.9375 17.4375 C0.94652344 16.61121094 0.95554687 15.78492188 0.96484375 14.93359375 C0.97644531 14.29550781 0.98804688 13.65742188 1 13 C0.67 13 0.34 13 0 13 C-1.28571429 4.57142857 -1.28571429 4.57142857 0 0 Z " fill="#32cd32" transform="translate(315,250)"/>
<path d="M0 0 C2 0.9375 2 0.9375 4 3 C4.18860435 5.18045024 4.05173741 7.27566868 3.94140625 9.4609375 C4.02587867 13.12140915 5.19075891 16.24512076 6.32421875 19.69921875 C7.16798759 22.57193462 7.37130588 25.02955299 7 28 C6.34 28.66 5.68 29.32 5 30 C4.15873388 25.93910105 3.32838113 21.87604526 2.5 17.8125 C2.26152344 16.66201172 2.02304688 15.51152344 1.77734375 14.32617188 C1.55175781 13.21435547 1.32617188 12.10253906 1.09375 10.95703125 C0.88427734 9.93585205 0.67480469 8.91467285 0.45898438 7.86254883 C0.02898209 5.18075268 -0.08705161 2.70948135 0 0 Z " fill="#32cd32" transform="translate(244,114)"/>
<path d="M0 0 C0.99 0.33 1.98 0.66 3 1 C3.67429967 4.39436356 4.3380828 7.79070193 5 11.1875 C5.28617187 12.62706055 5.28617187 12.62706055 5.578125 14.09570312 C5.84882813 15.49272461 5.84882813 15.49272461 6.125 16.91796875 C6.29257812 17.77156982 6.46015625 18.6251709 6.6328125 19.50463867 C7.00595229 22.04045103 7.06412996 24.44081397 7 27 C3.74594627 24.83063085 3.60012548 24.64895958 2.83203125 21.11328125 C2.66123047 20.33919922 2.49042969 19.56511719 2.31445312 18.76757812 C2.14880859 17.95740234 1.98316406 17.14722656 1.8125 16.3125 C1.63525391 15.52166016 1.45800781 14.73082031 1.27539062 13.91601562 C0.26186369 9.17709241 -0.18800723 4.84280693 0 0 Z " fill="#32cd32" transform="translate(276,50)"/>
<path d="M0 0 C1.1496582 1.71582031 1.1496582 1.71582031 2 4 C1.14135742 6.19824219 1.14135742 6.19824219 -0.39453125 8.546875 C-0.93787109 9.39121094 -1.48121094 10.23554687 -2.04101562 11.10546875 C-2.62560547 11.97816406 -3.21019531 12.85085937 -3.8125 13.75 C-4.67198242 15.08224609 -4.67198242 15.08224609 -5.54882812 16.44140625 C-8.55838774 21.05677329 -8.55838774 21.05677329 -10 23 C-10.33 23 -10.66 23 -11 23 C-10.91253716 21.56138706 -10.80434652 20.12402492 -10.6875 18.6875 C-10.62949219 17.88699219 -10.57148438 17.08648437 -10.51171875 16.26171875 C-9.90685184 13.58829935 -9.07446774 12.73297059 -7 11 C-4.19045466 8.43835572 -2.54704414 6.82930896 -2 3 C-1.34 3 -0.68 3 0 3 C0 2.01 0 1.02 0 0 Z " fill="#32cd32" transform="translate(227,93)"/>
<path d="M0 0 C0.66 0.66 1.32 1.32 2 2 C1.9765625 4.3828125 1.9765625 4.3828125 1.625 7.125 C1.45871094 8.49011719 1.45871094 8.49011719 1.2890625 9.8828125 C1.14597656 10.93082031 1.14597656 10.93082031 1 12 C-4.09006622 12.83726938 -8.97088262 13.1542294 -14.125 13.125 C-14.81464844 13.12886719 -15.50429687 13.13273437 -16.21484375 13.13671875 C-19.93589698 13.12960393 -23.38273222 12.88672323 -27 12 C-27 11.67 -27 11.34 -27 11 C-18.09 11 -9.18 11 0 11 C-0.33 9.68 -0.66 8.36 -1 7 C-0.72686657 4.65885633 -0.40197001 2.32249342 0 0 Z " fill="#32cd32" transform="translate(145,386)"/>
<path d="M0 0 C1.32817845 2.65635689 0.65059192 4.24678041 -0.2109375 6.9921875 C-2.24952608 12.17948716 -4.48927314 16.08786303 -9.3125 19 C-10.199375 19.33 -11.08625 19.66 -12 20 C-10.37885498 15.20178341 -7.70723241 11.3327141 -4.875 7.1875 C-4.40707031 6.49462891 -3.93914062 5.80175781 -3.45703125 5.08789062 C-2.30887563 3.38908895 -1.15500633 1.69415136 0 0 Z " fill="#32cd32" transform="translate(129,164)"/>
<path d="M0 0 C0.99 0.33 1.98 0.66 3 1 C2.21362363 5.91485228 -0.51858242 10.51858242 -4 14 C-6.125 13.625 -6.125 13.625 -8 13 C-7.04258894 11.39528272 -6.08403595 9.79124671 -5.125 8.1875 C-4.59132813 7.29417969 -4.05765625 6.40085938 -3.5078125 5.48046875 C-2.38116908 3.62705276 -1.20313389 1.80470083 0 0 Z " fill="#32cd32" transform="translate(81,239)"/>
<path d="M0 0 C0.66 0 1.32 0 2 0 C3.64311459 3.28622918 2.99748737 6.90726651 2.87890625 10.5078125 C2.85529526 11.34843231 2.83168427 12.18905212 2.80735779 13.05514526 C2.73066362 15.7452662 2.64666417 18.4351034 2.5625 21.125 C2.50928506 22.94660061 2.45654463 24.76821514 2.40429688 26.58984375 C2.27504071 31.06007618 2.13923154 35.5300676 2 40 C1.67 40 1.34 40 1 40 C1 28.12 1 16.24 1 4 C0.01 4.33 -0.98 4.66 -2 5 C-1.34 3.35 -0.68 1.7 0 0 Z " fill="#32cd32" transform="translate(167,192)"/>
<path d="M0 0 C0.66 1.32 1.32 2.64 2 4 C-0.5051971 7.48938167 -1.80462913 9.13199223 -6 10 C-6.33 10.99 -6.66 11.98 -7 13 C-7.66 13 -8.32 13 -9 13 C-9.33 13.99 -9.66 14.98 -10 16 C-10.66 15.67 -11.32 15.34 -12 15 C-12 14.34 -12 13.68 -12 13 C-11.34 13 -10.68 13 -10 13 C-9.63261719 12.15695313 -9.63261719 12.15695313 -9.2578125 11.296875 C-7.77073461 8.58134146 -5.95937218 6.53608562 -3.875 4.25 C-3.15054687 3.45078125 -2.42609375 2.6515625 -1.6796875 1.828125 C-0.84824219 0.92320313 -0.84824219 0.92320313 0 0 Z " fill="#32cd32" transform="translate(374,93)"/>
<path d="M0 0 C0.33 0 0.66 0 1 0 C1 4.62 1 9.24 1 14 C-13.85 13.505 -13.85 13.505 -29 13 C-29 12.67 -29 12.34 -29 12 C-19.43 11.67 -9.86 11.34 0 11 C0 7.37 0 3.74 0 0 Z " fill="#32cd32" transform="translate(337,384)"/>
<path d="M0 0 C4.00010667 6.00016001 4.31474226 13.91829912 4 21 C3.34 21 2.68 21 2 21 C-0.3931363 13.9203051 -2.36993465 7.40604577 0 0 Z " fill="#32cd32" transform="translate(293,135)"/>
<path d="M0 0 C0.33 0 0.66 0 1 0 C1.67511469 3.7068465 2.33858041 7.41568744 3 11.125 C3.19078125 12.17171875 3.3815625 13.2184375 3.578125 14.296875 C3.75859375 15.31523438 3.9390625 16.33359375 4.125 17.3828125 C4.29257812 18.31496582 4.46015625 19.24711914 4.6328125 20.20751953 C5.0221472 23.1684306 5.06158415 26.01701762 5 29 C4.34 29.33 3.68 29.66 3 30 C2.95101563 29.38253906 2.90203125 28.76507813 2.8515625 28.12890625 C2.252037 21.33772943 0.99978102 14.90823488 -0.6875 8.3125 C-1.08418583 5.37702487 -0.6034616 2.8832054 0 0 Z " fill="#32cd32" transform="translate(283,77)"/>
<path d="M0 0 C1.32 0.66 2.64 1.32 4 2 C2.35 4.97 0.7 7.94 -1 11 C-1.66 11 -2.32 11 -3 11 C-3.12375 11.639375 -3.2475 12.27875 -3.375 12.9375 C-3.58125 13.618125 -3.7875 14.29875 -4 15 C-4.99 15.495 -4.99 15.495 -6 16 C-5.93993922 14.54052295 -5.8511311 13.08220728 -5.75 11.625 C-5.70359375 10.81289063 -5.6571875 10.00078125 -5.609375 9.1640625 C-5 7 -5 7 -3 5.875 C-2.34 5.58625 -1.68 5.2975 -1 5 C-0.18828772 2.44480079 -0.18828772 2.44480079 0 0 Z " fill="#32cd32" transform="translate(106,286)"/>
<path d="M0 0 C3 1 3 1 4 3 C4.22858114 5.0374763 4.41024278 7.08040303 4.5625 9.125 C4.64628906 10.22070312 4.73007813 11.31640625 4.81640625 12.4453125 C4.87699219 13.28835937 4.93757812 14.13140625 5 15 C5.33 15 5.66 15 6 15 C6 16.65 6 18.3 6 20 C5.01 20.33 4.02 20.66 3 21 C2.01 14.07 1.02 7.14 0 0 Z " fill="#32cd32" transform="translate(239,87)"/>
<path d="M0 0 C0.33 0 0.66 0 1 0 C1 10.89 1 21.78 1 33 C2.98 32.505 2.98 32.505 5 32 C5.66 32.66 6.32 33.32 7 34 C5.02 34.66 3.04 35.32 1 36 C0 35 0 35 -0.11352539 31.67358398 C-0.11336629 30.19774444 -0.10767314 28.72189931 -0.09765625 27.24609375 C-0.09553383 26.08292381 -0.09553383 26.08292381 -0.09336853 24.89625549 C-0.08775345 22.40996506 -0.07519846 19.9237634 -0.0625 17.4375 C-0.05748694 15.75586067 -0.0529237 14.07421994 -0.04882812 12.39257812 C-0.03777913 8.26168434 -0.02050445 4.13085724 0 0 Z " fill="#32cd32" transform="translate(167,265)"/>
<path d="M0 0 C1.28300777 2.56601555 0.85098078 3.66479324 0.25 6.4375 C0.01023437 7.61119141 0.01023437 7.61119141 -0.234375 8.80859375 C-1.09729236 11.27847455 -1.98202617 12.36380501 -4 14 C-6.6875 15.1875 -6.6875 15.1875 -9 16 C-7.66414626 11.99243877 -5.65836661 9.00249087 -3.17578125 5.6484375 C-1.8939504 3.85131916 -0.8888731 2.02016614 0 0 Z " fill="#32cd32" transform="translate(60,272)"/>
<path d="M0 0 C0.66 0 1.32 0 2 0 C5 3.46153846 5 3.46153846 5 6 C0.61538462 9 0.61538462 9 -2 9 C-2.99 10.485 -2.99 10.485 -4 12 C-4.66 12 -5.32 12 -6 12 C-4.43358249 7.69235185 -2.31663844 3.93828536 0 0 Z " fill="#32cd32" transform="translate(39,304)"/>
<path d="M0 0 C3.46933577 6.20981949 4.38014457 13.96732541 4 21 C-0.13660795 14.79508808 -1.49042705 10.35640576 -1 3 C-0.67 2.01 -0.34 1.02 0 0 Z " fill="#32cd32" transform="translate(321,283)"/>
<path d="M0 0 C0.71671875 0.29132813 1.4334375 0.58265625 2.171875 0.8828125 C3.982167 1.59792785 5.80466981 2.28330091 7.640625 2.9296875 C8.50171875 3.24164063 9.3628125 3.55359375 10.25 3.875 C11.12140625 4.18179687 11.9928125 4.48859375 12.890625 4.8046875 C15 6 15 6 15.796875 8.1328125 C15.89742188 9.05707031 15.89742188 9.05707031 16 10 C11.64029169 8.65150163 7.68658562 6.95092154 3.625 4.875 C2.56539063 4.33617187 1.50578125 3.79734375 0.4140625 3.2421875 C-0.38257813 2.83226562 -1.17921875 2.42234375 -2 2 C-1.34 1.34 -0.68 0.68 0 0 Z " fill="#32cd32" transform="translate(256,301)"/>
<path d="M0 0 C0.66 0.33 1.32 0.66 2 1 C-1.65026823 5.20333917 -4.46591122 7.07765187 -10 8 C-10.99 7.34 -11.98 6.68 -13 6 C-10.87959258 4.96966118 -8.75352092 3.95097146 -6.625 2.9375 C-5.44164062 2.36902344 -4.25828125 1.80054688 -3.0390625 1.21484375 C-2.03617188 0.81394531 -1.03328125 0.41304688 0 0 Z " fill="#32cd32" transform="translate(199,271)"/>
<path d="M0 0 C0.66 0 1.32 0 2 0 C2.25 2.8125 2.25 2.8125 2 6 C0.125 7.875 0.125 7.875 -2 9 C-2.66 9 -3.32 9 -4 9 C-4 10.32 -4 11.64 -4 13 C-5.32 13.33 -6.64 13.66 -8 14 C-6.67997942 10.42705968 -5.10478612 7.36046508 -3 4.1875 C-2.484375 3.39730469 -1.96875 2.60710937 -1.4375 1.79296875 C-0.7259375 0.90544922 -0.7259375 0.90544922 0 0 Z " fill="#32cd32" transform="translate(178,87)"/>
<path d="M0 0 C3.90051902 0.30003992 5.32993754 1.32993754 8 4 C10.60611077 4.72197162 10.60611077 4.72197162 13 5 C12.67 6.32 12.34 7.64 12 9 C7.38 6.69 2.76 4.38 -2 2 C-1.34 1.34 -0.68 0.68 0 0 Z " fill="#32cd32" transform="translate(222,283)"/>
<path d="M0 0 C2 2 2 2 2 3.8125 C0.46033505 7.18051709 -2.0770945 8.76117877 -5 11 C-5 10.34 -5 9.68 -5 9 C-5.66 8.67 -6.32 8.34 -7 8 C-4.69 5.36 -2.38 2.72 0 0 Z " fill="#32cd32" transform="translate(354,116)"/>
<path d="M0 0 C0.66 0.99 1.32 1.98 2 3 C1.67 3.66 1.34 4.32 1 5 C0.01 5 -0.98 5 -2 5 C-2.33 7.64 -2.66 10.28 -3 13 C-4.98 13.66 -6.96 14.32 -9 15 C-7.61219205 11.10993227 -5.7847773 8.03441292 -3.375 4.6875 C-2.74335937 3.80449219 -2.11171875 2.92148437 -1.4609375 2.01171875 C-0.97882812 1.34785156 -0.49671875 0.68398438 0 0 Z " fill="#32cd32" transform="translate(50,288)"/>
<path d="M0 0 C0.66 0.33 1.32 0.66 2 1 C0.35821735 5.77609498 -2.26546702 9.79382904 -5 14 C-6.31538327 9.84228506 -5.34433068 7.1120703 -4 3 C-2.68 2.67 -1.36 2.34 0 2 C0 1.34 0 0.68 0 0 Z " fill="#32cd32" transform="translate(157,207)"/>
<path d="M0 0 C1.32 0.33 2.64 0.66 4 1 C3.67 11.23 3.34 21.46 3 32 C2.67 32 2.34 32 2 32 C1.97494385 31.13721436 1.9498877 30.27442871 1.92407227 29.38549805 C1.82888615 26.18176231 1.72965556 22.97818463 1.62768555 19.7746582 C1.58439782 18.38864017 1.54271836 17.00257094 1.50268555 15.61645508 C1.44483416 13.62308202 1.38070224 11.62989435 1.31640625 9.63671875 C1.27974854 8.43748779 1.24309082 7.23825684 1.20532227 6.00268555 C1.12266975 2.95005651 1.12266975 2.95005651 0 0 Z " fill="#32cd32" transform="translate(232,177)"/>
<path d="M0 0 C3.8131431 0.67290761 7.43702894 1.46144431 11 3 C11.875 5.125 11.875 5.125 12 7 C10.948125 6.5359375 10.948125 6.5359375 9.875 6.0625 C5.52845406 4.45616781 1.62414234 4 -3 4 C-3.33 3.34 -3.66 2.68 -4 2 C-2.68 2 -1.36 2 0 2 C0 1.34 0 0.68 0 0 Z " fill="#32cd32" transform="translate(208,277)"/>
<path d="M0 0 C1.32 0 2.64 0 4 0 C3.34 1.65 2.68 3.3 2 5 C1.34 5 0.68 5 0 5 C0 5.66 0 6.32 0 7 C-0.66 7 -1.32 7 -2 7 C-2.33 7.99 -2.66 8.98 -3 10 C-3.66 10 -4.32 10 -5 10 C-5 9.01 -5 8.02 -5 7 C-4.34 7 -3.68 7 -3 7 C-3 5.35 -3 3.7 -3 2 C-2.01 2 -1.02 2 0 2 C0 1.34 0 0.68 0 0 Z " fill="#32cd32" transform="translate(379,137)"/>
<path d="M0 0 C0.66 0.99 1.32 1.98 2 3 C1.23056641 6.15467773 0.67047831 7.58588104 -2.125 9.3125 C-3.053125 9.6528125 -3.053125 9.6528125 -4 10 C-3.34 11.32 -2.68 12.64 -2 14 C-2.66 14 -3.32 14 -4 14 C-4 13.34 -4 12.68 -4 12 C-4.99 12.33 -5.98 12.66 -7 13 C-5.35821735 8.22390502 -2.73453298 4.20617096 0 0 Z " fill="#32cd32" transform="translate(137,151)"/>
<path d="M0 0 C0.36629408 4.27343092 -0.59185923 6.48812804 -3 10 C-4.32 9.34 -5.64 8.68 -7 8 C-6.67 7.01 -6.34 6.02 -6 5 C-5.34 5 -4.68 5 -4 5 C-3.87625 4.360625 -3.7525 3.72125 -3.625 3.0625 C-3.41875 2.381875 -3.2125 1.70125 -3 1 C-1 0 -1 0 0 0 Z " fill="#32cd32" transform="translate(196,62)"/>
<path d="M0 0 C0.33 0 0.66 0 1 0 C1.53132389 2.58157368 2.05034379 5.16461756 2.5625 7.75 C2.78969727 8.84441406 2.78969727 8.84441406 3.02148438 9.9609375 C3.74557178 13.66557073 4.09817231 16.39322322 3 20 C3 19.01 3 18.02 3 17 C2.34 17 1.68 17 1 17 C-0.64563284 11.35783028 -1.60682401 5.71315203 0 0 Z " fill="#32cd32" transform="translate(315,250)"/>
<path d="M0 0 C0.99 0.33 1.98 0.66 3 1 C1.69157927 6.70947228 -0.48584882 11.28589476 -4 16 C-4.33 16 -4.66 16 -5 16 C-5 14.35 -5 12.7 -5 11 C-4.01 11 -3.02 11 -2 11 C-1.24758891 7.34543185 -0.59950296 3.68266103 0 0 Z " fill="#32cd32" transform="translate(164,192)"/>
<path d="M0 0 C-2.25597827 2.25597827 -4.04603867 2.96574192 -7 4.125 C-7.886875 4.47820312 -8.77375 4.83140625 -9.6875 5.1953125 C-12 6 -12 6 -14 6 C-14 4 -14 4 -12.0625 1.875 C-7.95255181 -0.64129481 -4.69505333 -0.36823948 0 0 Z " fill="#32cd32" transform="translate(244,164)"/>
<path d="M0 0 C2 1 2 1 4 3 C4.36827609 7.5666235 4.11436226 11.54255094 3 16 C2.67 16 2.34 16 2 16 C1.66104344 14.27192682 1.32908475 12.54248026 1 10.8125 C0.814375 9.84957031 0.62875 8.88664062 0.4375 7.89453125 C0.03122388 5.2065794 -0.07933572 2.71228981 0 0 Z " fill="#32cd32" transform="translate(244,114)"/>
<path d="M0 0 C0.66 0.99 1.32 1.98 2 3 C1.06810009 6.10633303 -0.19193628 8.28790442 -2 11 C-2.99 10.67 -3.98 10.34 -5 10 C-3.66511872 6.40608886 -2.03977277 3.24509304 0 0 Z " fill="#32cd32" transform="translate(210,36)"/>
<path d="M0 0 C0.65234375 1.74609375 0.65234375 1.74609375 1 4 C0.00390625 6.03515625 0.00390625 6.03515625 -1.4375 8.0625 C-3.68171051 11.17885278 -3.68171051 11.17885278 -4 15 C-4.66 15 -5.32 15 -6 15 C-6 12.69 -6 10.38 -6 8 C-5.34 8 -4.68 8 -4 8 C-3.71125 7.236875 -3.4225 6.47375 -3.125 5.6875 C-2 3 -2 3 0 0 Z " fill="#32cd32" transform="translate(194,147)"/>
<path d="M0 0 C0.33 1.32 0.66 2.64 1 4 C0.34 4 -0.32 4 -1 4 C-0.938125 4.928125 -0.87625 5.85625 -0.8125 6.8125 C-1 10 -1 10 -2.3125 11.875 C-4 13 -4 13 -7 13 C-5.33333333 9.66666667 -3.66666667 6.33333333 -2 3 C-1.34 3 -0.68 3 0 3 C0 2.01 0 1.02 0 0 Z " fill="#32cd32" transform="translate(145,138)"/>
<path d="M0 0 C0.66 0 1.32 0 2 0 C4 7.625 4 7.625 4 11 C3.01 11 2.02 11 1 11 C-0.17571451 7.32589215 -0.07366746 3.83070817 0 0 Z " fill="#32cd32" transform="translate(272,272)"/>
<path d="M0 0 C1.1875 1.625 1.1875 1.625 2 4 C0.625 7.25 0.625 7.25 -1 10 C-2.32 10 -3.64 10 -5 10 C-3.66511872 6.40608886 -2.03977277 3.24509304 0 0 Z " fill="#32cd32" transform="translate(98,212)"/>
<path d="M0 0 C-1.45255699 3.82946843 -3.42895561 5.12050295 -7 7 C-7 6.34 -7 5.68 -7 5 C-8.65 5 -10.3 5 -12 5 C-8.45976076 2.63984051 -4.36489861 0 0 0 Z " fill="#32cd32" transform="translate(239,150)"/>
<path d="M0 0 C2.97 0.99 5.94 1.98 9 3 C9 3.99 9 4.98 9 6 C7 7 7 7 4.5 6.375 C2 5 2 5 0.6875 2.375 C0.460625 1.59125 0.23375 0.8075 0 0 Z " fill="#32cd32" transform="translate(239,278)"/>
<path d="M0 0 C0.66 1.32 1.32 2.64 2 4 C0.02 6.97 -1.96 9.94 -4 13 C-4.66 11.68 -5.32 10.36 -6 9 C-4.71034824 7.62437146 -3.37310707 6.29233607 -2 5 C-1.34 5 -0.68 5 0 5 C0 3.35 0 1.7 0 0 Z " fill="#32cd32" transform="translate(119,267)"/>
<path d="M0 0 C1.32 0.66 2.64 1.32 4 2 C-1.5 6.875 -1.5 6.875 -6 8 C-4.02 5.36 -2.04 2.72 0 0 Z " fill="#32cd32" transform="translate(381,85)"/>
<path d="M0 0 C0.66 0.99 1.32 1.98 2 3 C-0.97 7.95 -0.97 7.95 -4 13 C-5 9 -5 9 -3.6875 6.25 C-3.130625 5.5075 -2.57375 4.765 -2 4 C-1.34 4 -0.68 4 0 4 C-0.33 3.01 -0.66 2.02 -1 1 C-0.67 0.67 -0.34 0.34 0 0 Z " fill="#32cd32" transform="translate(96,304)"/>
<path d="M0 0 C1.41750563 0.11509661 2.83401169 0.24253658 4.25 0.375 C5.03890625 0.44460937 5.8278125 0.51421875 6.640625 0.5859375 C9.085877 1.01507113 10.84836903 1.78600638 13 3 C8.38926889 4.29676812 4.66159911 3.71109139 0 3 C0 2.01 0 1.02 0 0 Z " fill="#32cd32" transform="translate(212,219)"/>
<path d="M0 0 C1.42944945 2.35438733 2.08661261 3.48032433 1.625 6.25 C1.41875 6.8275 1.2125 7.405 1 8 C-0.32 8 -1.64 8 -3 8 C-3 8.66 -3 9.32 -3 10 C-3.66 10 -4.32 10 -5 10 C-4.67 8.68 -4.34 7.36 -4 6 C-3.01 6 -2.02 6 -1 6 C-1.020625 5.195625 -1.04125 4.39125 -1.0625 3.5625 C-1 1 -1 1 0 0 Z " fill="#32cd32" transform="translate(52,287)"/>
<path d="M0 0 C0.6875 1.6875 0.6875 1.6875 1 4 C-0.4375 6.75 -0.4375 6.75 -2 9 C-3.32 8.67 -4.64 8.34 -6 8 C-6 7.34 -6 6.68 -6 6 C-5.34 6 -4.68 6 -4 6 C-4 5.34 -4 4.68 -4 4 C-3.34 4 -2.68 4 -2 4 C-1.34 2.68 -0.68 1.36 0 0 Z " fill="#32cd32" transform="translate(319,156)"/>
<path d="M0 0 C0.28875 0.639375 0.5775 1.27875 0.875 1.9375 C1.82823451 4.15206079 1.82823451 4.15206079 4 5 C3.67 7.97 3.34 10.94 3 14 C0.81005752 10.71508627 0.64722661 9.16904361 0.375 5.3125 C0.30023438 4.31863281 0.22546875 3.32476562 0.1484375 2.30078125 C0.09945313 1.54152344 0.05046875 0.78226562 0 0 Z " fill="#32cd32" transform="translate(269,258)"/>
<path d="M0 0 C0.99 0.33 1.98 0.66 3 1 C2.34 4.63 1.68 8.26 1 12 C0.67 12 0.34 12 0 12 C-0.19401633 10.18818595 -0.38004375 8.37551468 -0.5625 6.5625 C-0.66691406 5.55316406 -0.77132813 4.54382813 -0.87890625 3.50390625 C-0.91886719 2.67761719 -0.95882813 1.85132813 -1 1 C-0.67 0.67 -0.34 0.34 0 0 Z " fill="#32cd32" transform="translate(266,235)"/>
<path d="M0 0 C0.99 0.33 1.98 0.66 3 1 C2.67 2.32 2.34 3.64 2 5 C1.01 4.67 0.02 4.34 -1 4 C-1.33 5.32 -1.66 6.64 -2 8 C-3.32 7.67 -4.64 7.34 -6 7 C-5.67 6.34 -5.34 5.68 -5 5 C-4.34 5 -3.68 5 -3 5 C-2.5359375 4.0409375 -2.5359375 4.0409375 -2.0625 3.0625 C-1 1 -1 1 0 0 Z " fill="#32cd32" transform="translate(331,142)"/>
<path d="M0 0 C0.99 0.33 1.98 0.66 3 1 C1.68 3.31 0.36 5.62 -1 8 C-1.99 7.67 -2.98 7.34 -4 7 C-4 6.34 -4 5.68 -4 5 C-3.34 5 -2.68 5 -2 5 C-1.7834375 4.0409375 -1.7834375 4.0409375 -1.5625 3.0625 C-1 1 -1 1 0 0 Z " fill="#32cd32" transform="translate(390,124)"/>
<path d="M0 0 C0.99 0 1.98 0 3 0 C2.67 1.65 2.34 3.3 2 5 C0.35 5.33 -1.3 5.66 -3 6 C-1.125 1.125 -1.125 1.125 0 0 Z " fill="#32cd32" transform="translate(159,117)"/>
<path d="M0 0 C0.66 0.99 1.32 1.98 2 3 C1.01 3.33 0.02 3.66 -1 4 C-1.103125 4.763125 -1.20625 5.52625 -1.3125 6.3125 C-2.04364039 9.17059424 -2.76951913 10.15742885 -5 12 C-5.66 11.67 -6.32 11.34 -7 11 C-4.69 7.37 -2.38 3.74 0 0 Z " fill="#32cd32" transform="translate(188,71)"/>
<path d="M0 0 C0.89332031 0.12761719 1.78664063 0.25523437 2.70703125 0.38671875 C3.60808594 0.50660156 4.50914062 0.62648438 5.4375 0.75 C6.12457031 0.85699219 6.81164062 0.96398437 7.51953125 1.07421875 C4.45706378 2.85831677 2.29873852 3.30301896 -1.23046875 3.19921875 C-2.0296875 3.18117188 -2.82890625 3.163125 -3.65234375 3.14453125 C-4.255625 3.12132812 -4.85890625 3.098125 -5.48046875 3.07421875 C-3.68981165 0.76004728 -2.99175075 0.08951695 0 0 Z " fill="#32cd32" transform="translate(394.48046875,428.92578125)"/>
<path d="M0 0 C2.31 0.66 4.62 1.32 7 2 C7 2.66 7 3.32 7 4 C0.375 4.25 0.375 4.25 -3 2 C-2.01 2 -1.02 2 0 2 C0 1.34 0 0.68 0 0 Z " fill="#32cd32" transform="translate(220,229)"/>
<path d="M0 0 C0 3.30941204 -0.40339294 5.11090151 -2 8 C-4.625 8.8125 -4.625 8.8125 -7 9 C-6.02180976 7.68677212 -5.0424189 6.37443848 -4.0625 5.0625 C-3.51722656 4.33160156 -2.97195313 3.60070312 -2.41015625 2.84765625 C-1 1 -1 1 0 0 Z " fill="#32cd32" transform="translate(344,127)"/>
<path d="M0 0 C0.66 0 1.32 0 2 0 C1.67 6.27 1.34 12.54 1 19 C0.67 19 0.34 19 0 19 C-0.1938211 16.02111874 -0.38035102 13.04209754 -0.5625 10.0625 C-0.61857422 9.21236328 -0.67464844 8.36222656 -0.73242188 7.48632812 C-0.80493164 6.27299805 -0.80493164 6.27299805 -0.87890625 5.03515625 C-0.9260376 4.2862915 -0.97316895 3.53742676 -1.02172852 2.76586914 C-1 1 -1 1 0 0 Z " fill="#32cd32" transform="translate(401,397)"/>
<path d="M0 0 C0.66 0.66 1.32 1.32 2 2 C1.9765625 4.3828125 1.9765625 4.3828125 1.625 7.125 C1.51414063 8.03507812 1.40328125 8.94515625 1.2890625 9.8828125 C1.19367188 10.58148438 1.09828125 11.28015625 1 12 C-0.65 12 -2.3 12 -4 12 C-2.68 11.67 -1.36 11.34 0 11 C-0.2784375 10.2265625 -0.2784375 10.2265625 -0.5625 9.4375 C-1.15419517 6.14091261 -0.567267 3.27754265 0 0 Z " fill="#32cd32" transform="translate(145,386)"/>
<path d="M0 0 C-1.29743778 2.59487555 -2.29362471 3.02269781 -5 4 C-7.75 3.625 -7.75 3.625 -10 3 C-10 2.34 -10 1.68 -10 1 C-6.59437148 0.22157062 -3.49234244 -0.09978121 0 0 Z " fill="#32cd32" transform="translate(191,289)"/>
<path d="M0 0 C0.33 0 0.66 0 1 0 C1 5.61 1 11.22 1 17 C-0.32 16.34 -1.64 15.68 -3 15 C-2.34 15 -1.68 15 -1 15 C-0.67 10.05 -0.34 5.1 0 0 Z " fill="#32cd32" transform="translate(204,255)"/>
<path d="M0 0 C-0.57584432 2.38564077 -1.22227595 4.66682784 -2 7 C-2.66 7 -3.32 7 -4 7 C-4.33 7.99 -4.66 8.98 -5 10 C-5.33 8.35 -5.66 6.7 -6 5 C-5.34 4.67 -4.68 4.34 -4 4 C-4 3.01 -4 2.02 -4 1 C-2 0 -2 0 0 0 Z " fill="#32cd32" transform="translate(150,221)"/>
<path d="M0 0 C0.99 0.33 1.98 0.66 3 1 C1.35 2.98 -0.3 4.96 -2 7 C-2.66 6.34 -3.32 5.68 -4 5 C-2.25 1.125 -2.25 1.125 0 0 Z " fill="#32cd32" transform="translate(328,198)"/>
<path d="M0 0 C0.66 0.33 1.32 0.66 2 1 C1.38722388 3.96175123 0.74627478 5.38058783 -1 8 C-1.66 8 -2.32 8 -3 8 C-3.33 8.66 -3.66 9.32 -4 10 C-4 8.68 -4 7.36 -4 6 C-3.34 6 -2.68 6 -2 6 C-1.7834375 5.071875 -1.7834375 5.071875 -1.5625 4.125 C-1 2 -1 2 0 0 Z " fill="#32cd32" transform="translate(350,171)"/>
<path d="M0 0 C3.3 0.33 6.6 0.66 10 1 C9.67 1.99 9.34 2.98 9 4 C5.37471432 4.20140476 3.13498292 3.85776765 0 2 C0 1.34 0 0.68 0 0 Z " fill="#32cd32" transform="translate(195,164)"/>
<path d="M0 0 C0.66 0.99 1.32 1.98 2 3 C1 6 1 6 -2.0625 7.6875 C-3.031875 8.120625 -4.00125 8.55375 -5 9 C-3.7508258 5.54074837 -2.32472205 2.85306797 0 0 Z " fill="#32cd32" transform="translate(169,101)"/>
<path d="M0 0 C1.60031344 3.20062687 0.03173691 5.72271806 -1 9 C-1.99 9 -2.98 9 -4 9 C-2.94124926 5.59687262 -1.99097846 2.98646769 0 0 Z " fill="#32cd32" transform="translate(129,164)"/>
<path d="M0 0 C-0.33 0.99 -0.66 1.98 -1 3 C-1.99 3.33 -2.98 3.66 -4 4 C-6.1875 2.5625 -6.1875 2.5625 -8 1 C-4.93251126 -0.86240388 -3.40254489 -1.2151946 0 0 Z " fill="#32cd32" transform="translate(247,148)"/>
<path d="M0 0 C0.33 0.99 0.66 1.98 1 3 C1.66 3.33 2.32 3.66 3 4 C0.94766315 6.2477975 -0.00667261 7.0022242 -3 8 C-2.37240135 5.07120629 -1.41377341 2.63904371 0 0 Z " fill="#32cd32" transform="translate(346,125)"/>
<path d="M0 0 C1.04059132 3.12177395 1.32284898 4.07083439 0 7 C-2.5625 8.25 -2.5625 8.25 -5 9 C-3.7508258 5.54074837 -2.32472205 2.85306797 0 0 Z " fill="#32cd32" transform="translate(87,230)"/>
<path d="M0 0 C0.66 0.33 1.32 0.66 2 1 C1.67 2.65 1.34 4.3 1 6 C-0.98 6.33 -2.96 6.66 -5 7 C-3.35 4.69 -1.7 2.38 0 0 Z " fill="#32cd32" transform="translate(311,164)"/>
<path d="M0 0 C2 2 2 2 2.125 5.625 C2.08375 6.73875 2.0425 7.8525 2 9 C1.01 9 0.02 9 -1 9 C-0.67 6.03 -0.34 3.06 0 0 Z " fill="#32cd32" transform="translate(325,312)"/>
<path d="M0 0 C0.33 0 0.66 0 1 0 C1.25 2.25 1.25 2.25 1 5 C-1 7.3125 -1 7.3125 -3 9 C-3.66 8.67 -4.32 8.34 -5 8 C-4.67 7.01 -4.34 6.02 -4 5 C-3.34 5 -2.68 5 -2 5 C-1.34 3.35 -0.68 1.7 0 0 Z " fill="#32cd32" transform="translate(112,191)"/>
<path d="M0 0 C0.99 0.33 1.98 0.66 3 1 C1.515 4.465 1.515 4.465 0 8 C-0.66 7.67 -1.32 7.34 -2 7 C-1.125 2.25 -1.125 2.25 0 0 Z " fill="#32cd32" transform="translate(213,115)"/>
<path d="M0 0 C1.32 0.33 2.64 0.66 4 1 C3.67 2.98 3.34 4.96 3 7 C2.34 7 1.68 7 1 7 C0.67 4.69 0.34 2.38 0 0 Z " fill="#32cd32" transform="translate(96,299)"/>
<path d="M0 0 C0.66 0 1.32 0 2 0 C2.33 1.98 2.66 3.96 3 6 C2.34 6 1.68 6 1 6 C0.67 6.99 0.34 7.98 0 9 C0 6.03 0 3.06 0 0 Z " fill="#32cd32" transform="translate(262,222)"/>
<path d="M0 0 C0.66 0.33 1.32 0.66 2 1 C0.68 3.31 -0.64 5.62 -2 8 C-2.66 8 -3.32 8 -4 8 C-2.25 2.25 -2.25 2.25 0 0 Z " fill="#32cd32" transform="translate(119,182)"/>
<path d="M0 0 C0.33 0.66 0.66 1.32 1 2 C3.02463255 2.65213292 3.02463255 2.65213292 5 3 C4.67 3.66 4.34 4.32 4 5 C3.34 5 2.68 5 2 5 C1.67 5.66 1.34 6.32 1 7 C1 6.01 1 5.02 1 4 C0.34 4 -0.32 4 -1 4 C-0.67 2.68 -0.34 1.36 0 0 Z " fill="#32cd32" transform="translate(340,180)"/>
<path d="M0 0 C0.66 0 1.32 0 2 0 C0.8141763 3.37503669 -0.27573689 5.64722731 -3 8 C-3 6.02 -3 4.04 -3 2 C-2.34 2 -1.68 2 -1 2 C-0.67 1.34 -0.34 0.68 0 0 Z " fill="#32cd32" transform="translate(205,130)"/>
<path d="M0 0 C0.66 0.99 1.32 1.98 2 3 C0.75 4.5625 0.75 4.5625 -1 6 C-3.1875 5.6875 -3.1875 5.6875 -5 5 C-3.35 3.35 -1.7 1.7 0 0 Z " fill="#32cd32" transform="translate(354,116)"/>
<path d="M0 0 C0.33 1.32 0.66 2.64 1 4 C0.01 4.33 -0.98 4.66 -2 5 C-2.33 5.99 -2.66 6.98 -3 8 C-3.66 7.67 -4.32 7.34 -5 7 C-5 6.34 -5 5.68 -5 5 C-4.34 5 -3.68 5 -3 5 C-2.5359375 4.0409375 -2.5359375 4.0409375 -2.0625 3.0625 C-1 1 -1 1 0 0 Z " fill="#32cd32" transform="translate(367,101)"/>
<path d="M0 0 C2.09350689 3.4019487 2.17942163 6.05272412 2 10 C1.34 10 0.68 10 0 10 C-1.125 3.375 -1.125 3.375 0 0 Z " fill="#32cd32" transform="translate(321,283)"/>
<path d="M0 0 C0.99 0.33 1.98 0.66 3 1 C2.67 2.32 2.34 3.64 2 5 C0.35 5.33 -1.3 5.66 -3 6 C-2 4 -1 2 0 0 Z " fill="#32cd32" transform="translate(81,239)"/>
<path d="M0 0 C0.33 0 0.66 0 1 0 C1.36923077 7.50769231 1.36923077 7.50769231 -0.5 10 C-0.995 10.33 -1.49 10.66 -2 11 C-1.125 3.375 -1.125 3.375 0 0 Z " fill="#32cd32" transform="translate(153,210)"/>
<path d="M0 0 C2.4375 0.125 2.4375 0.125 5 1 C5.99 2.32 6.98 3.64 8 5 C4.7 4.01 1.4 3.02 -2 2 C-1.34 1.34 -0.68 0.68 0 0 Z " fill="#32cd32" transform="translate(190,172)"/>
<path d="M0 0 C0.66 1.32 1.32 2.64 2 4 C0.68 5.65 -0.64 7.3 -2 9 C-2 7.02 -2 5.04 -2 3 C-1.34 3 -0.68 3 0 3 C0 2.01 0 1.02 0 0 Z " fill="#32cd32" transform="translate(227,93)"/>
<path d="M0 0 C1.32 0.33 2.64 0.66 4 1 C3.01 2.98 2.02 4.96 1 7 C0.67 7 0.34 7 0 7 C0 4.69 0 2.38 0 0 Z " fill="#32cd32" transform="translate(229,88)"/>
<path d="M0 0 C0.99 0.33 1.98 0.66 3 1 C3.33 1.99 3.66 2.98 4 4 C2.35 4.33 0.7 4.66 -1 5 C-0.67 3.35 -0.34 1.7 0 0 Z " fill="#32cd32" transform="translate(33,316)"/>
<path d="M0 0 C2.4375 1.25 2.4375 1.25 3.4375 4.25 C0.4655615 3.12548273 -1.89690687 2.02706209 -4.5625 0.25 C-2.5625 -0.75 -2.5625 -0.75 0 0 Z " fill="#32cd32" transform="translate(250.5625,297.75)"/>
<path d="M0 0 C0.598125 0.350625 1.19625 0.70125 1.8125 1.0625 C-0.15216413 2.13025224 -2.15605359 3.12803465 -4.1875 4.0625 C-4.8475 3.7325 -5.5075 3.4025 -6.1875 3.0625 C-5.8575 2.0725 -5.5275 1.0825 -5.1875 0.0625 C-2.1875 -0.9375 -2.1875 -0.9375 0 0 Z " fill="#32cd32" transform="translate(204.1875,281.9375)"/>
<path d="M0 0 C0.99 0.33 1.98 0.66 3 1 C1.92598892 3.91517292 1.22189824 5.77810176 -1 8 C-1.33 7.01 -1.66 6.02 -2 5 C-1.34 5 -0.68 5 0 5 C0 3.35 0 1.7 0 0 Z " fill="#32cd32" transform="translate(111,279)"/>
<path d="M0 0 C0.66 0.33 1.32 0.66 2 1 C-0.3125 3.5 -0.3125 3.5 -3 6 C-3.99 6 -4.98 6 -6 6 C-4.68 5.34 -3.36 4.68 -2 4 C-2 3.01 -2 2.02 -2 1 C-1.34 0.67 -0.68 0.34 0 0 Z " fill="#32cd32" transform="translate(199,271)"/>
<path d="M0 0 C0.66 1.32 1.32 2.64 2 4 C1.01 4.99 0.02 5.98 -1 7 C-1.99 6.67 -2.98 6.34 -4 6 C-2.68 4.02 -1.36 2.04 0 0 Z " fill="#32cd32" transform="translate(68,260)"/>
<path d="M0 0 C0.625 1.8125 0.625 1.8125 1 4 C0.01 5.485 0.01 5.485 -1 7 C-1.99 6.67 -2.98 6.34 -4 6 C-2.68 4.02 -1.36 2.04 0 0 Z " fill="#32cd32" transform="translate(77,246)"/>
<path d="M0 0 C2.125 0.375 2.125 0.375 4 1 C2.35 2.65 0.7 4.3 -1 6 C-1.625 4.125 -1.625 4.125 -2 2 C-1.34 1.34 -0.68 0.68 0 0 Z " fill="#32cd32" transform="translate(360,160)"/>
<path d="M0 0 C0.125 2.875 0.125 2.875 0 6 C-0.66 6.66 -1.32 7.32 -2 8 C-2.33 5.69 -2.66 3.38 -3 1 C-1 0 -1 0 0 0 Z " fill="#32cd32" transform="translate(251,136)"/>
</svg>
